<svg xmlns="http://www.w3.org/2000/svg" width="1268" height="739" fill="none"><path fill="#714b67" d="m94.6 80-1.2-.5-1.4-.9q-.6-.5-.8-1a9 9 0 0 1-1.1-3.3q-.2-1.9.2-4.5l.4-1.5.5-2 .5-1.5.3-.7v-.5l.2-.7.7-1.3.8-1.3.8-1q.6-.9 1.4-1.7.8-.9 1.6-1.4l.6-.3 1-.3 1-.2q1.6-.2 2.6.3 1.1.6 1.8 1.8.7.7.8 1.4l.2 1.7v2L105 65l-.5 2q-.3.7-.6.7h-.1l-.1.2-.1 1q-.1.8-.6 1.8-.9 3-2.3 5-1.4 2.2-3 3.3-1.6 1.2-3.2 1m6.6 1-1.2-.2q-.7-.2-.8-.6l-.2-.4-.1-.2q-.2 0-.4-.3l-.3-.6-.8-1.3-1-1.7-1-1.5-.4-.8q-.2-.2 0-.6t.7-.8a1 1 0 0 1 1.1-.2q.7 0 1.4 1.4l.4.8.6 1.2.5.7.4.8q.2.5.5.7l.4.7q.4.4.5.8.8 1.2.7 1.6t-1 .5M95 77.2q1.3-.3 2.4-1.6t2-3.4 1.9-5l.6-1.8.7-2.1q.2-1.2.2-2.5t-.3-2q-.3-.5-1-.8-1.1-.3-2.2.2t-2.1 2q-1 1.3-1.8 3.6-1.2 2.9-1.8 5-.6 2-.6 3.7-.1 1.6.3 3 .1 1 .5 1.5t1.2.2m18.5-1q-.4-.4-.6-.9l-.4-1.3-.1-.6V73l-.3.6-.4.6-.5.5-.9.6q-1 .7-1.9.8-.8 0-1.4-.8l-.9-1q-.3-.6-.2-1.5 0-1.2.2-2.2t1-3l.8-2 .4-1h1.2q.7.2.8.6t0 1.2-.6 2l-.7 2.2q-.4 1-.4 1.7t.4.9q.3.1.8-.1t1.3-1.2 1.5-3.1l.3-1.2.1-1.1.2-.8q.2-.4.6-.7l.3-.3q.2-.2.3 0h.5q.2-.1.3.2l.4.4q.3.2.4 1.2t-.7 2.7l-.7 2-.2 1.4.2 1q.1.3.6.7.4.2.4.8l.1.9q0 .3-.5.4h-.9zm6.5-.3q-.7 0-1.3-.7-.6-.8-.8-2v-1.7l.7-3.5.4-1.7.2-.9q.1-.5.8-.3t1.2 1l.3.5v1l-.5 2-.4 2.2v1.6l-.2 2q-.1.6-.4.5m2.3-13.4-.3.1-.3-.1q-.3 0-.6-.3l-.6-.5-.3-.4v-1l.3-1.3q.3-.7.7-.8l.6.1 1 .3.5 1.2q.3.7 0 1.5 0 .8-1 1.2m5.6 13.2a4 4 0 0 1-1.8 0 4 4 0 0 1-1.6-1q-.6-.7-.7-1.8v-2.2l.8-2.8q.5-1.3 1.2-2.3l1.2-1.5 1-.9 1.1-.3 1-.2q.5 0 1.1.3t.7.7l.1.1q.2 0 .5.5t.4 1 0 1q0 .6-.4 1.2t-.6.6h-.3v.2l-.4.2-.7-.1q-.3-.1-.5-.4v-.4l.2-.9q.2-.9 0-1.2t-.8 0q-.8.5-1.2 1.1-.5.6-.9 1.7l-.7 3q-.2.7 0 1.2l.3.4h1l.8-.3.9-.6.8-.7q.2-.1.3-.4l.4-.4q.2-.4.6-.5h.8l.6.3.4.4q.2.3 0 .4h-.2v.1q.1.2-.2.6l-.8 1-1 1-.6.4q-.3 0-.3.2l-.4.3-1 .6zm8.5-.8-.9-.5q-.4-.3-.3-1.1l.1-1 .3-1 .1-1.3.5-1 .7-2.4.7-2.5.7-2.1.9-2.4.5-1.6.6-1.7.3-.5.3-.4q.2-.5.6-.5.5 0 .7.2.5.2.8.8l.2.8-.2.8-.3.4-.3.6-.2.9-.3.8-.3.7-.2.6-.6 1.5-.5 1.4-.4 1.6-.7 1.6q-.2.3-.2.9v1l-.4 1.1-.2.6-.3 1.4-.3 1.2q0 .8-.4 1t-1 0m7.3 0q-.5 0-.7-.2l-1-.6-1-1.1-1.3-1.7-1.1-1.5 1.6-2.3.8 1 .4.5 1.3 1.7.7 1 .8.8 1 .6.2.3v.5q0 .4-.4.6-.3.3-1.3.4m-4.9-5.7q-.2-.5-.2-1.2.1-.7.5-1 .1-.2.3-.2l.2-.3.3-.4.4-.4 1.1-.8 1.2-1 1-1 .4-.4.4-.2h.6q.4.2.6.5.3.3.3.9.2.3-.3.8l-1.2 1-.7.6-.7.6-.6.5-.7.6-.6.6-.7.6q-1 1-1.2 1t-.4-.8m10.4 3.7-.1-.5V72h.3-1.2l-.3-.1v-.9l.1-.4.2-.8.3-1 .2-1.6.5-2 .6-2.2.6-2.2.6-2.4.6-1.7.7-1.7.2-.7.2-.7q.3-.5.8-.7t1 .2l.5.6q.2.3.1 1 0 .5-.5 1.9l-.4 1-.4 1.4-.7 2-.5 1.6q-.1 1-.4 1.8l-.6 1.9-.5.2.5-.7.6-.8.4-.4 1.8-1.4q1-.6 2-.9t1.4-.1q.6.2 1.2.8.6.5.8 1.5.3.5 0 1.3t-.8 2l-1.1 2-1.3 1.6-.6.4-.5.6q-.6.7-1.6 1l-2 .4q-1 0-1.7-.3-.8-.2-1-.7m.9-1.4h1.8l.8-.2q.5-.1 1-.5L155 69l1.1-1.5.8-1.5q.3-.7.3-1.3 0-.3-.2-.3l-.6.3-1 .4-.7.4-.1.3h-.2l-1.4 1.3-.8.9-.4.5-.2.3-.2.4-.6.9-.4.8-.3.5zm14.8 2.5h-.7l-.6-.3-1.3-1.3q-.5-.8-.5-1.3V70q-.3-.1-.2-.2v-.2q.3 0 .1-.3v-1.2q.2-1 .6-1.7l.4-1 .6-1.2.7-1L165 62q.6-.6 1.3-.9.6-.3 1.2-.3t1.2.4q.8.2 1.5.7t.8 1.2q.4.9.3 2.2 0 1.2-.9 3.3-.5 1.2-1.1 2l-1.3 1.6q-.6.5-1.6 1zm2.5-5 .6-1.1.4-1.5v-1.8q0-.5-.3-.5h-.8q-.5.2-1 .9l-.8 1-.5 1.3-.4 1.8q-.2 1 0 1.7.4.6 1 .3t1.8-2m8 3.8h-.6l-.6-.5-1-1.3q-.5-.7-.4-1.3v-.7q-.1-.2 0-.2v-.2q.2 0 .2-.4-.1-.2.1-1l.7-1.7.5-1 .8-1 .8-1 1.4-1 1.4-.7 1.4-.3q.8 0 1.3.5.7.3 1 .8t.6 1.4q.1 1-.1 2.4t-1.4 3.2q-.8 1.2-1.5 1.9t-1.6 1.3l-1.4.6zm3-4q.7-.7 1-1.4l.5-1.8q.2-.2.2-.6V64q-.1-.4-.3-.5-.3-.2-.6 0-.3 0-.7.4l-1.7 2q-.7 1-1 2.5 0 .8.2 1.2.4.4 1 .2t1.4-1.1m7.3 3.8q-.3 0-.7-.5l-.8-.9-.4-.9.4-1.2.5-2q.3-.4.4-.9l.2-.9.5-1.3.5-1.5.6-1.4.6-1.7.5-1.5.6-1.6.8-2 .6-1.8.3-1V51l.3-.2.5-.2h.5q.4 0 .8.6t.5.9q0 .5-.5 2l-1.2 3.3-1.5 3.8-.6 1.8q-.2.6-.1.8l.2-.2q.3 0 .7-.4l.8-.7.8-.6.7-.4.5-.4.5-.4q.6-.4 1-.3t.6.5.3.9-1 1.2q-.6.6-1.4 1.1l-1.4.9-1 .6.4.4.6.8.7 1.2.6 1.1q.4.5.8.6.4.2 1-.1.6-.2.9 0 .3 0 .6.4l.1.5q0 .3-.3.6l-1.8 1.1q-.8.5-1.6 0l-1.3-1-1.4-1.6-.2-.5-.3-.5-.3-.4-.1-.2-.3-.6-.4-.2-.3.3-.3.6-.3 1-.3 2.2q0 .4-.3.8t-.8.4m14-.6a4 4 0 0 1-1.8-.4l-1.5-1q-.5-.7-.5-1.4v-.4l.4-.1.4.1.4.3 1.2.4q.6 0 1-.2t.6-.6l-.2-.5-.3-.8q-.9-1.1-1.1-2.2L198 63q0-.5.3-1l1-1.2 1.4-1.2 1.6-1q.8-.4 1.3-.4h1.2q.7 0 1 .2t.8 1q.5.8.5 1.4l-.3.6-.4.9-.2.5-.2.5q-.2.4-.7.4t-.9-.5a2 2 0 0 1-.5-1q0-.4.3-.8t.2-.5v-.1h-.3l-.7.2-1 .5-1 .9-.4.8-.2.8.2 1 .5 1 .2.3.4.6q1.3 2.4.6 3.6t-2.8 1.4m276.2-2-1.5-.2-1.8-.5-.7-.4-.6-1-.3-1 .3-1.1q.3-.5.8-.5l.6.2.8.5 1.4.9q.7.4 1.3.4h2.3q.6 0 1-.3l2.7-1.5.9-.7.2-.1.5-.2.6-.5 1-.8.5-.4q0-.3.2-.5v-.4q.3-.2.8-1l1-1.7.9-1.8q.6-1.7.6-3.1t-.5-2.7a7 7 0 0 0-1.4-2.1l-1-.7-1.1-.8-1.1-.6q-.5-.2-.6-.1l-.6.9-1.1 2.3-1.4 3-1.4 3.1-.6 1.2-.5 1.2-.2.6q-.4.5-.9 1.6-.5 1-1 3.1l-.5 1.8q-.2.7-.3.6v.3l-.2.4q0 .2-.4.2l-1-.2q-.4-.3-.8-1v-1q0-.7.3-1.6l.6-1.5.8-2 .8-1.7.6-1.3.8-2 .7-1.6.7-1.4.4-.8.5-1.3 1-2.1.3-1-.3-.2h-.6l-.3-.1-.5-.2-.5-.5-.2-.5V45q0-.2.5-.4l1.4-.3h3.5l2 .6 2 .9q1 .4 2 1.5a12 12 0 0 1 2 2.4q.9 1.3 1 2.8l.1 1V55q0 .7-.2.9l-.1.3v.2l-.2.7-.5 1q-.1.9-.6 2l-1 2-.9 1.3h-.2q-.1.1 0 .1 0 .2-.4.6l-.5.5-.4.4-.3.4h-.3v.2l-1 .9-1.5 1q-.8.7-1.6 1.1t-1.5.7l-.7.3-.7.2-1 .2h-2.9m18-2-.7-.1-.6-.5-.8-1.5q-.3-.8-.2-1.3l.2-.5v-.2l-.1-.2.1-.2q.2 0 .2-.4l.3-1 1-1.6q.1-.3.6-.7.4-.6.9-1l1-.8 1.5-1 1.5-.4h1.4q.8 0 1.2.6.7.4 1 1 .2.5.2 1.4 0 1-.4 2.4t-1.9 3q-.9 1-1.7 1.6t-1.8 1q-.7.4-1.5.5zm3.6-3.6q.8-.5 1.2-1.3l.8-1.6.2-.6.1-.9q0-.4-.2-.5-.2-.3-.5-.2l-.8.4-2 1.7q-.8.9-1.3 2.4-.2.8 0 1.2t1 .3 1.5-1m9.6 5.3a4 4 0 0 1-1.8-.4 4 4 0 0 1-1.4-1.1q-.5-.8-.4-1.8t.4-2.3l1-2.6q.7-1.3 1.6-2.1L508 58q.7-.6 1.2-.7.5-.2 1.1-.2h1l1 .5q.6.3.6.7l.1.2q.2 0 .4.5l.3 1q0 .6-.2 1-.2.6-.6 1.1t-.7.5h-.2l-.1.2q0 .2-.4.1l-.6-.2q-.4-.1-.5-.4l.2-.4.2-.9q.3-.8.2-1.1-.2-.4-.8-.2l-1.4 1q-.6.5-1.1 1.5l-1.1 2.8q-.3.8-.2 1.2l.2.5 1 .1q.5 0 .9-.2l1-.5.9-.5.3-.4.4-.3q.3-.4.7-.4h.8l.5.5q.3.2.4.5l-.1.3-.2.1-.3.6-1 .9-1 .8-.7.3-.3.1-.5.3-1.1.4zm15.4 1.5q-.2.1-.6-.2l-.6-.7-.3-.8v-2.1q.1-.2-.2 0l-1.1.8-1.7 1.3q-.7.4-1.2.4-.2 0-.6-.4l-.6-.8-.5-.8.2-2 .8-2.5 1.2-2.4q.6-1.1 1.2-1.7.6-.7 1-.7.5.2.9.7l.5 1q.1.2 0 .4l-.2.4-.8 1-1 1.5-.8 1.5-.5 1.2q-.1.5 0 .4l.8-.1 1-.7 1.3-1.2 1.2-1.5 1-1.3.7-1 .8-1.3.6-.4h.7l.4.4q.3.1.5.4.3.2.3.4l-.5 1-.5.8-1.4 2.6-1 2.6-.2 1 .1.9.2.4.3.4q.3.3 0 .5l-.9.5zm4.4 1.9-.6-.6a3 3 0 0 1-.7-1.5l.1-1.6q.5-1 1-1.2.5-.4 1-.3t1 .5l-.5 1.2q-.2.5 0 1 .2.3 1 .6l1 .2h2.4l.8-.1 1.6-.6 1.1-1 .4-.7.2-.8v-.9l-.3-.9-.6-1.6-.4-.8-.8-1.1-.5-1.2q-.2-.7-.7-1l-.2-.7q0-.4-.2-.4v-.2l-.2-.4q-.3-1 .2-2.3.5-1.4 1.7-2.5l1-1 1-1 .7-.3h.2l.5-.3.8-.3.9-.2h.3l1-.2h.6l.8.1q1.4.5 2 1.3.8.7.7 2.4l-.3.8-.6.6-.5.1-1.2.3q-.6 0-1.7-.5v-.2l.2-.1.4-.3.4-.5q.5-.5.3-.8t-.7-.4l-2.2.2q-1 .3-1.9 1.1l-1.1 1.5q-.4.6-.5 1.1v.7l.2.9q1 1.5 1.4 2.4l.8 1.2v.3q.2.2.3.7l.4.8q.2.4.1.5l.1.2.2.5.2.9.1 1.1v1q0 .5-.3 1L539 71q-.3.5-.8.9t-1.4.8-2 .8l-2 .4h-3.4l-1.3-.3zm16.5-1.2-.5-.2-.4-.3v-.6l-.5-.5v-.6l.6-1 .9-1.6.9-1.7.7-1.4.4-.7v-.5l.5-.5q.5-.2 1 0l.6 1q.2.7.2 1.5l-.5 1.1-1 2q-.6 1.3-1.4 2.5l-.9 1.2q-.2.4-.6.3m5.5-11.8q-.4 0-.9-.4l-.8-1q-.4-.6-.3-1.2l.3-.5.6-.8.4-.5.6.2.5.2.8 1.5q.5.6.5 1.3t-.5 1-1.2.2m2 19.8-1.1-.2-1.4-.8q-.8-.8-1-1.3-.4-.6-.4-1l.1-.6q.3-.7.8-.6t.8.4l.6.7.7.7q.3.3.6.3.6 0 1-.4t1-1.4l.5-1.2.5-1 .5-1.6.3-1 .1-.4v-.1l-.2.1-.7.2-.9.3-1.8.3h-1.4l-.7-.8-.3-1v-.8l.4-.8.7-1.2.6-1q.3-.5.5-.5l.2-.3.2-.3.3-.4 1.5-1q1.3-1 2.3-1.4 1-.5 1.8-.5h.4l.2.1.4.1.7.3q.4.2.8.9l.7 1.4q.3.7.3 1.3l-.5 1.3q-.3.7-.6.7t-.6 0l-.5.8-.3.4-.3.5-.2.8-.5 1.3-.4 1.4-.2.7-.3.6-.4 1-.4 1q-.2 1-.7 1.6l-1 1.1q-.7.8-1.5 1-.7.3-1.3.3m.5-11.2q0 .3.5.2l1.2-.1 1.4-.5.8-.5.4-.5.4-.4.2-.2.3-.3q.2 0 .3-.2.2 0 .3-.2l.4-.2v-.5l-.2-.6-.6-.8q-.4-.2-1 .3t-2 1.5l-1.3 1.3-1 1q-.2.4-.1.7m10.7 5-.6-.3-.6-.5-.2-.6V71q.1-1 .7-2.2t1.7-3.4l1.5-2.5.4-.3.3-.4h.1l.2.1q.3 0 .9.4t.7 1l-.3 1q-.1.6-.9 1.4l-.6.9-.5 1-.2.4-.3.4-.2.3-.1.3 1.5-1.2q1.6-1.3 2.6-1.8t1.7-.4 1 1l.3.6v2.1l-.3 1.8q.7 0 1-.2l.6-.1.6-.1h.7l-.5 1-.9 1-1 1q-.6.4-1 .3-.5 0-1-.3t-.8-1.2l-.2-1v-1.1l.1-1.4V69l-.9.5-1.5 1.3q-1.6 1.4-2.7 2-1 .7-1.3.6M61 249.8q-.7-.3-1-.7l-.3-1 .1-1.2.3-1.8.5-1.5.3-2 .6-2.3.5-1.8.1-.7.2-.7.5-1.4.5-1.6.7-2.7.8-2 .9-2q.3-.6 1-.8H68q.7.1 1 .8l.3.7.3 1.2.4 2.3.5 3.3.4 2.8.7 2.2.4 1.4.3 1.6.4 1.3q.2.5.4.5l.3-.3q.2-.3.4-1.3t.6-2.8.7-5.1l.2-1.8.2-2.5.2-1.8.2-1.7.1-.9v-.7l.2-.4v-1.7l.3-.5q.3-.7.8-.8.6 0 1.1.2t.7.8v1.6l-.4 3.3v1.2l-.3 1.7v1.6l-.2 1.6q0 .7-.2.7-.4 3.7-1 6.3l-1.2 4.3q-.5 1.8-1.7 2.5t-2.3-.6l-1.2-1.5q-.5-.7-.9-1.8l-.7-2.7-.7-2.5-.5-2.7-.3-2.9q-.2-1.8-.4-2-.2-.4-.5.3l-.5 2-.4 1.5-.4 1.6-.4 1.4-.2.8-.3 1-.3 1.4q-.8 3.1-1 5.4l-.6 2.9q-.2 1-.4 1.1-.3.3-1.1 0m21.2-5.5h-.7l-.6-.4-1.2-1.3q-.4-.7-.4-1.2v-.8q-.2-.1-.1-.2v-.2q.3 0 .2-.3v-1.1l.6-1.7.5-1 .7-1q.4-.7.8-1l1.3-1.3q.7-.5 1.3-.7l1.4-.3q.8-.1 1.3.3.8.3 1.2.8t.5 1.3.1 2.4-1.2 3.4q-.6 1.2-1.3 2l-1.6 1.3-1.4.7zm2.8-4.2q.6-.7.8-1.5l.5-1.8v-1.5q0-.4-.3-.5-.3-.2-.6 0l-.7.5-1.5 2q-.7 1.2-.9 2.7 0 .8.3 1.2.4.3 1 .1.6-.3 1.4-1.2m8.8 3.1q-.3 0-.8-.3l-.9-.7-.5-.8v-.1l-.1-.1q-.2 0-.3-.8l-.1-1.7v-1.5l.4-1.4.3-1.7.7-2-1.3-.1-.4-.2-.2-.3.2-.8q.2-.5.4-.5h.5l.9-.2.5-.1.2-.2.2-.4.2-.5.3-.6.3-.8q0-.3.3-.8l.3-.6.4-.6q.3-.3 1-.5t1.1.2l.4.6-.2.7-.5 1-.5 1.1q-.4.8-.1.8l1.8-.3q.9-.3 1.3 0t.6.9q.2.7 0 .9t-1.5.3l-1.3.3-.8.1-.5.1-.4.1-.3.3-.2.4-.3.7-.5 1.3-.5 2.6-.2 2.5.1.9q.2.2.9.2l1-.1 1-.3.8-.4.6-.5.6-.4.2-.2q.2-.3.5 0l.5.7v1q-.1.5-1.1 1.2-1.3 1-2.7 1.4t-2.3.2m18.4-2.6q-.7.5-1.5.5-.7 0-1.3-.7t-.7-2l-.1-.8v-1l.3-1.3.1-.6q.2-.3 0-.2l-.2.1-.3.3-1.2 1.7-1 1.6-.6 1.3-.2 1q0 .6-.4.8t-.8 0q-.7-.2-1.2-.9t-.6-1.8V236l.1-2.6.6-3.6.5-2.1.4-1.8.3-1 .3-.7.3-1.4.2-.8v-.4l.2-.4.2-.6.3-.2h.5l.8.4q.4.2.4.4.3.4.4 1v1q0 .6-.8 2l-.7 2.1-.5 2.3-.3 1.3-.3 1.7-.2 1.5q-.1.7 0 .8 0 .2.2.2t.5-.4q0-.3.3-.6l.5-.5.5-.8.7-1 .7-.7.6-.3q.6-.1 1 .2t.9 1l.2.2.2.2.2 1q.1.9-.2 2.4l-.1 1.8q0 .6.2.6l.3-.2.7-.5q.9-.7 1.3-.6t.5.6l-.1.6-.2.6v.1l-.3.5-.9.9zm6.8-.3q-.7 0-1.4-.6-.6-.8-.9-2v-1.7l.5-3.5q0-1 .2-1.8l.1-.9q.2-.4.9-.3t1.2.8l.3.6v1q0 .7-.3 2l-.3 2.2.1 1.6v2q-.1.6-.4.6m1.5-13.5h-.7l-.6-.3-.6-.5-.3-.3v-1l.2-1.4q.2-.6.6-.7h.6l1 .2.6 1.2q.3.7.2 1.5-.1.7-1 1.3m4 11.8-.6-.1q-.5-.2-.6-.4l-.4-.5-.2-1.2.2-2.3 1-3.6 1-2.8.2-.4.3-.4h.3l1 .2q.6.3.8.9v1q0 .5-.6 1.5l-.4 1-.3 1.2-.1.3-.2.5-.1.3-.1.3 1.2-1.5q1.3-1.6 2.2-2.3t1.6-.7 1.2.7l.4.7.2.8.1 1.2.2 1.8 1-.4.5-.3.5-.1.7-.2-.2 1-.7 1.3-.9 1.2q-.4.4-.9.5l-1-.2q-.5-.2-1-1l-.3-.9-.3-1-.2-1.5v-.3q-.2 0-.8.7l-1.2 1.6q-1.3 1.7-2.2 2.5t-1.2.9m17.4 5.5q-.9.5-2 .1-1-.3-1.7-1.2l-.5-.7-.6-1-.5-.9v-.5q0-.3.5-.5h.9q.4 0 .5.2l.3.5.2.4.4.3q.4.5.8.7h.7q.5-.5.6-1.1.3-.6.6-2l.3-2.1.4-1.7.1-.7.3-.4h.2q-.7.5-1.1 1t-1.2 1q-.2.2-1 .3H139l-.8-.4-.5-.6-.5-.8q-.2-.4-.2-1.5t.3-2.3q.3-.8 1-1.8l1.3-1.8q.8-.9 1.4-1.2l.9-.3q.6-.3 1.2-.2l.8.1 1 .6 1.2 1 .9 1q.2.4.2 1-.1.6-.4 1l-.5 1q-.3.4-.3 1.1 0 1-.4 2.3l-.4 2.2-.3 2q-.5 2.9-1.3 4.2t-1.4 1.7m-2-10.8 1.1-.3q.5-.1.9-.6l.8-1.3.6-1.5q.2-.7 0-1.5-.1-.5-.4-.6h-.7q-.6.2-1 .6l-1 1.4-.6 1.6q-.2 1-.1 1.5t.5.7m21 2.4-1-.3-1-.7-.6-.8-.3-1-.2-1.5v-1.1l.1-1.5.2-1.4.1-.8q0-.4-.3-.5l-1 .1h-.6l-.2-.3v-.3q0-.2-.2-.2l-.2-.2.1-.5q.2-.3.5-.4l.9-.2 1.1-.4q.6-.3.9-.7l.4-1.5.5-1.5.4-.9 1-.3q.6 0 1 .4l.3.3.1.3-.1.7-.6 1.6-.3.6v.2h.3l.7-.1.7-.2h.7q.8-.2 1.2.2t.5 1q0 .4-.2.7t-1.2.3l-.8.2-1 .2q-.7 0-1 .2l-.4.1-.3.6-.3 1-.2 1.2v3.9q.3.7.6 1t.8 0l1-1q.6-.5 1-.3.5 0 .6.6.2.5-.1 1.2t-1 1.1l-1.4.7q-.7.3-1.2.2m17.8-2.4-1.3.3q-.6.2-1.2-.2l-.6-.8q-.3-.4-.4-1.2v-2.3q0-1.2-.2-1.7-.1-.5-.3-.5-.3 0-1 .6l-1.6 1.8-1.8 2.6-.8 1.3-.3.5-1.1-.1-.8-.5-.5-.6.1-.7.2-1.4.3-1.4.2-1 .5-2 .4-2.2.4-1.2.4-1.7.3-1.2.3-1 .3-1.5.4-1.5.3-1v-.6l.1-.4h.5q0-.1.4 0l1 .4q.4.2.4.4.2.4.2 1t-.5 2q-.3.6-.5 1.7l-.4 1.8-.3.8-.4 1.4-.4 1.6-.3 1.7q-.3.8-.1 1 0 .3.7-.6l1.4-2 1.3-1.3q.7-.6 1.2-.6.3 0 .8.4l1 .6q.5.4.6.7l.3.9.2 1.2v4.4l.5.4q.5.3.5.8a1 1 0 0 1-.4.9m5-1q-.3.2-.8-.1l-1-.7q-.4-.4-.5-.8-.3-.7-.2-1.6t.5-2.2l1-2.3q.7-1.2 1.5-2.1a8 8 0 0 1 2-1.6l.6-.4h.4l.7.2.9.2q.5.1.9.6l.5.9.3 1q.4.8.3 1l-.1.4q-.2.4 0 .4l-.1.1-.1.3-.2 1.4q0 .6.2 1 .3.8.7.8.5.1 1.1-.7.3-.3.8-.4t.4.1l.1.1h.3l.1.4v.6l-.2.7-.4.7-.1.1-.3.4q-.6.4-1.5.5t-1.3-.2l-1-.7q-.6-.5-.8-1l-.2-.2-.8.7-.5.6-.2.3-.2.2-.2.2h-.3l-.5.4-.9.5zm.3-2.7.6-.3.8-.7.8-.8.5-.7.2-.4.4-.6.8-1.4q.1-.5-.3-1-.2-.4-.4-.4t-.7.3l-.8.9-.8 1.2-.7 1.4-.4 1.3-.2.9.1.2zm13.4 1.8q-.3 0-.8-.4l-.8-.7q-.4-.4-.5-.8l-.2-.1q-.2-.2-.3-.9v-3.2q0-.5.3-1.4l.4-1.7.6-1.9-1.3-.2-.4-.2-.2-.3.2-.8q.2-.5.4-.5h.6l.8-.2h.5l.2-.3.2-.3.2-.6.3-.6.3-.8.4-.8.2-.6.5-.6q.2-.3.8-.5t1.2.2l.4.6-.2.7-.5 1-.5 1.1q-.4.8 0 .8l1.7-.3q.9-.3 1.3 0t.6.9q.2.7 0 1t-1.5.2q-.7.3-1.3.3l-.8.1-.5.1-.4.1-.3.3-.2.4-.3.7-.5 1.3-.5 2.6-.2 2.5.1.9q.2.2.9.2l1-.1 1-.3.8-.4.6-.5.6-.4.2-.2q.2-.3.5 0 .4.3.5.7v1q-.1.5-1 1.2-1.4 1-2.8 1.4t-2.3.3M92.2 275.9q-1-.3-1.6-.7-.6-.5-.5-.9l.2-.4.6-.2 1.8.1h.7l.6-.3q.3 0 .5-.2.2 0 .1-.1l-.2-.3-.4-.1h-.2q-.1-.2-.4-.3l-.5-.3-1.4-1q-.6-.3-.5-.5v-.2q-.2 0-.5-.5l-.3-1.2v-1.3l.7-1.3.7-1 1.2-1.3q.6-.7 1.3-1.2l1.8-1 1-.1q.6-.1.8 0 .3-.2.7 0l.8.6.7.8v1l.1.9q0 .4-.2.4h-.1v.2q0 .3-.5.8l-1 .8q-.5.3-.9.1l-.3-.2-.4-.3-.2-.4.1-.2v-.1l.7-.9.2-.6v-.7H97l-.6.3-1 .8-.9.7-.1.3-.2.1q0-.1-.1 0l-.3.6-.4.6-.3.6-.1.5v.5q0 .3.4.6l.9.6 1.8 1.1.9.7.3.5q.7 1 .3 1.7-.3.8-1.1 1.3l-1 .4-1.8.3zm15.5-2.7a5 5 0 0 1-2 .9 5 5 0 0 1-2 0 4 4 0 0 1-1.6-1l-.7-1.3q-.4-.9-.4-2.4t.5-3q.6-1.7 1.5-3t2.1-1.8l.9-.3 1.2-.2q.8 0 1.4.3t.9.5q.5.4.8.9t.2.9q0 1-.7 2.3t-1.8 2l-1.3.4h-2q-.8 0-1 .3t0 1.3q0 .5.3 1 .3.3.9.4h1l.8-.5.4-.4.5-.4.3-.4.3-.2h.3q.4 0 .8.3l.4.6-.2.8-.7 1zm-1.3-7 .6-.6.7-.8q.3-.4.3-.7t-.6-.5-1.2 0l-.5.5-.7.7-.5.8-.3.5q.2.2.6.2h.8zm8.6 6.4-.7.1h-.8q-.2 0-.3-.2l-.1-.1-.4-.2-.7-.4-.5-1q-.1-.5.1-2 0-1.1.4-2.3l1-2.4q.7-1.2 1.6-2l1.4-1.5q.4-.5 1.1-.6.8-.2 1.4.1.4.1.8.6l.8.9.7.9.2.6.2.6v3.5q0 .7.2.9t.6 0l.8-.2a1 1 0 0 1 .7.5q.2.3 0 .9l-.5.9-.9.7-1 .3-.7-.1-.7-.7-.6-1-.3-.7-1 1.1-.7 1-.5.5q0 .3-.5.6zm.5-3.2q.5-.4.8-.9l.7-1 .7-1.3.6-1.3.3-1-.5-.7q-.2-.4-.5-.4-.4 0-1 .7l-1.1 1.7-.3.5-.3.7-.2.4-.2.7-.2 1v1q.1.2.4.3t.8-.4m10.5 1.2q-.1-.2-.5-.3t-.3-.3v-.2h-.2v-.7l.4-1.5.6-1.7.6-1.4.1-.2v-.2l.1-.3.3-.5.3-1v-.7q-.2-.2-.4 0h-.1l-.4.2-.4.2q-.7.6-1 .6t-.7-.7l-.2-.6.2-.5.6-.6.4-.4 1-.6.7-.3q.8-.4 1.4-.2t1 .8q.5.5.5 1 .1.7-.2 1.6l-.3.5q-.1.4 0 .4l.2-.3.4-.4.3-.3q.2 0 .2-.3l.1-.2.1-.1q.2 0 .3-.2l.7-.7.6-.3q.7-.3 1.2.4t.7 1.7l-.4 1.8 1-1.5.3-.5.3-.4q0-.2.2-.2h.1v-.1l.1-.1.3-.3.3-.3q.5-.3 1.3-.2.7 0 1.1.7l.5.6.3.8v1.9l-.2.5.1.5.1.6.3.1q.4-.1.7-.4l.6-.6q.4-.5.8-.2t.6.6l-.1.6-.3.9-.4.4-.4.3-.4.4-.4.5-.4.2-.3.2h-.4q-.3.2-1 .1t-.9-.8l-.5-.8q-.3-.6-.2-1.4v-2.2l-.1-.3q-.2 0-.5.3l-.7 1-.9 1.2-.7 1.3-.4 1-.2.6q-.2.2-.8.1l-.8-.5q-.1-.2-.3-.2l-.2-.2v-.6l.2-1.5.3-2 .2-.9-.4.3-1 1-.7 1-.9 1.4-1.1 1.9q-.8 1.4-1.2 1.7t-.8 0m19 0-.7-.5q-.3-.3-.4-1l-.1-1.1v-2.8q0-.2.1 0l.1-1 .2-1.1q.2-.6.1-1.1l.2-.6v-.3l.2-.8.6-2.8.7-1.6v-.2l.1-.3v-.5l.1-.3.2-.4.2-.5v-.4l.4-1 .4-1 .3-.6q.2-.5.5-.6.1-.4.6-.6l.7-.2q.4-.1.7.1l.3.7v.7l-.1.5v.2l-.1.3-.1.4-.2.3-.4 1-.7 1.8-.8 2-.4 1.6-.1.5v.2l-.2.4-.1.4-.3 2v.7l-.3.8v.6l-.1.4-.1.4v.1l-.3 1.5-.1 2.1v.1q0 .7-.4 1-.2.5-.7.4m7.4-2q-1.3-.4-1.9-1.5t-.6-3q0-1-.2-1.3l-.5-.7q-.2 0-.5-.3-.4-.3-.4-.5v-.5l.2-.4.4-.3.4-.1.4.1q.3.1.3.3.2.2.4-.3l.5-1q.2-.6.6-1.1l.9-1 .8-.6 1.5-.6.8-.1q.6 0 1.3.3t1 .7.7.9.2 1.2 0 1-.6 1l-1.2 1.3-1 .8-1 .3-1.1.1h-.7q-.2-.2-.4 0v1.8l.2.4.5.5q.2.1.8 0 .6-.2 1.2-.9.5-.8 1-1.2 0-.3.5-.4h1q.4.1.4.6l-.3 1.5q0 .2-.5.7l-.8 1-.7.7q-1 .6-1.9.7zm1.6-7.4.7-.3q.4-.2.6-.5l.7-1v-.9q-.3-.2-.6-.1l-.6.4-.6.5-.7.7-.5.8v.3q0 .2.4.1zm8.7 6.7q-1.2-.3-1.7-.7-.6-.5-.5-.8l.2-.4q.1-.2.6-.2h2.5l.6-.2.5-.2q.2-.1.1-.2l-.2-.2-.3-.2h-.3q-.1-.2-.4-.3l-.5-.3-1.4-.9q-.7-.4-.5-.6v-.1q-.2 0-.5-.6l-.3-1.1.1-1.3q.2-.7.6-1.3l.7-1.1 1.2-1.3 1.4-1.2 1.7-.9 1-.2h1.5l.8.6.7.8v1l.1 1q0 .3-.2.4h-.1v.2q0 .3-.5.8l-1 .7q-.5.4-.8.2l-.4-.2-.4-.3v-.1l-.2-.3.1-.3.7-1 .3-.6v-.4l-.1-.2h-.3l-.7.3-1 .7-.8.8-.2.3h-.2l-.1.1-.3.5-.7 1.2-.1.6v.4q0 .4.4.6l.9.6 1.8 1.2.9.6.3.6q.7.9.3 1.7t-1.1 1.2l-1 .4-1.8.3zm12.4-1.5a4 4 0 0 1-2-.2l-1.4-1q-.6-.6-.7-1.3v-.4l.4-.2.4.1.5.3q.5.3 1.1.3t1.1-.2.5-.6l-.2-.5-.4-.8q-1-1-1.2-2.1l-.5-2.2q-.1-.4.3-1l.8-1.2 1.4-1.3q.7-.6 1.5-1l1.3-.6h2.2l.9 1.1q.5.8.5 1.3l-.2.7-.4.8-.2.5-.1.6q-.2.4-.7.4t-1-.4a2 2 0 0 1-.5-1l.2-.8.3-.5-.1-.1h-.2q-.3 0-.7.3l-1 .6-.9.8-.5.9q-.1.4 0 .8t.2 1l.6 1 .2.3.4.6q1.5 2.3.8 3.5t-2.7 1.5m295 456.4-1-.4-.3-.1v-.3l-.5-.2-.9-1-.8-1.3-.4-.9q-.2-.5 0-.6l.7-.2.8-.3q.4-.1.6.5.4.7 1.2 1.3t2 .8a5 5 0 0 0 2.2-.1q.8-.3 1-1 0-.6-.4-1.4l-.2-.5-.5-.4-.8-1-.9-.5-.8-.4-1-.9-1.1-1-.8-1.2q-.4-.6-.5-1.4l.2-1.8.8-1.7.8-1 1.3-1.5 1.3-1.2 1-.8.6-.4.4-.3v-.2h.2l.7-.2q.6-.2 1.3-.7 2.2-.8 3.7-1 1.6-.3 2.4-.2l1.5.6q.8.4 1.2 1.1.6.7.6 1.4.1.8-.4 1.9l-1.4 1.9q-.8.8-1.6 1.2-1 .3-1.6 0-.6-.4-.5-1l.2-.6 1.2-1.1q1.1-1.4 1.2-2 .2-.7-.5-.9h-.7l-1.2.1-1.1.2-.5.2v.1q0 .1-.1 0l-.5.2-.9.5-1 .5-1 .5-.4.3q0 .4-.8.6l-1.2 1-1.3 1.6-.9 1.6q-.3.8-.1 1.3t.8 1.1l1.8 1.4 2 1.5 1.4 1.4.8 1.1q.3.6.3 1.3l-.1 1.4-.3 1-.8 1q-.5.6-.9.5l-.5.2-.4.1q-.3.2-1.1.2l-1.9.2zm9.3-.2q-.5-.3-.5-.7t.5-1.3l1.8-2.8q1-1.4 1.3-2.2l.4-1.1v-.5q0-.3.2-.4l.4-.3.8-.5q.6-.4 1-.9l.7-1.3 1.2-1.7 1.9-2.6 1.7-2.4 2-2.4.8-.6.7-.2q.7 0 1.4.5t1.1 1 .7 1.1v1.1l-.3 2-.5 2.5-.6 3-.7 3.8-.6 3.7q-.3 1.8-.3 3.1v.6l-.1.4h-.9l-1.2-.3q-.6-.2-.6-.5l-.1-.2v-.6l.3-2 .6-4.9h-4.7l-1 .2q-.3 0-.8.3l-.8.9-.6 1-.3.5-.5.4-.1.2-.4.9-.8 1.6-1 1.5-1 1.1zm8.7-10.2h2.1l1.2-.3h.9l.5.1q0 .2.2.2h.1l.2-.6.4-1.5.4-1.8.4-1.8.2-1.3.1-1v-.6q-.2 0-.8.6l-1.4 1.7-1.6 2.3-.7 1q-.2.3-.4.2l-.4.5-.7 1-.6.8q-.2.4-.1.5m10.8 11.8-.5-.2-.7-.4q-.3-.3-.3-.5v-1.2q0-.4.2-.7l.2-.8.3-.6.2-1 .4-1 .7-1.4.3-.7.1-.5.4-.9.5-1.3.4-1 .1-.3v-.2l.4-.7.7-1.7 1-2.3.3-1.1-.1-.7q-.2-.4 0-.6l.3-.3.1-.1.5-.3 1.2-.3 1.4-.4 1-.3h.5l.8.1.7.1 1.7.6q.8.5 1.4 1.2l.7 1 .8 1.8v1.4q0 1-.6 2-.6 1.2-1.6 2.4l-2.4 2q-1.4 1-2.9 1.3-1.5.2-2.6-.1-.6-.3-.8-.8v-.9l.1-.5h.8l1.6-.2.8-.2.6-.3 1.4-1q.7-.5 1.6-1.6l.5-.9.2-1 .2-1q.3-.9-.2-1.5t-1.7-.8q-.4-.2-1-.1h-1l-.8.3-.1.2-.2.4-.3 1-.6 1.2-.7 1.5-.5 1.3-.5 1-.2.4-.2.5-.4.9-.4 1.3-.6 1.4-.9 2.3q-.3 1-.1 1.5 1 0 1 .5 0 .3-1.2 1.5-.4.8-.8 1-.3.3-.6.3zm117.6-500.9-1-.2-.3-.1v-.3l-.5-.1-1-.9-1-1-.6-1q-.2-.4 0-.5l.6-.4.7-.4q.4-.1.7.4.5.7 1.4 1.2a5 5 0 0 0 2 .5q1.2 0 2.3-.6.7-.4.8-1 0-.6-.6-1.4l-.3-.4-.5-.4-1-.8-1-.3-.8-.4-1.2-.6-1.2-1-1-1q-.5-.5-.6-1.3l-.1-1.8.5-1.8.6-1.2 1-1.5 1.2-1.5 1-1 .4-.5.3-.3.1-.1.8-.4q.5-.2 1.1-.9 2-1.1 3.6-1.6 1.4-.5 2.3-.5l1.6.4q.8.3 1.4.9.6.5.7 1.3.3.8 0 1.9l-1.2 2q-.6 1-1.4 1.5-.9.4-1.5.2t-.7-.9l.2-.6.9-1.3q1-1.5 1-2.2t-.7-.7h-.7l-1.2.4-1 .4-.5.2v.1q0 .1-.1 0l-.4.3-.9.6-1 .7-.7.6-.4.4q0 .3-.7.7l-1 1.1-1 1.9-.7 1.6q-.2.9 0 1.4t1 1l2 1 2.1 1.2 1.7 1.2 1 1q.4.5.5 1.2v2.4l-.7 1.2q-.4.6-.8.6l-.5.2-.4.3-1 .3-1.8.4zm12.4-2.5q-.6.2-1-.3-.6-.4-.8-1.4t-.1-2.1l.2-.7v-.7l.3-.9.6-2.5.3-.7.2-.3v-.4l.1-.6.3-.5v-.7l.1-.2.1-.3.5-1.3.7-2.1.7-2.3.5-1.8.2-1 .1-.5.5-.2.4-.2h.6l.4.4.5.5q.3.3.3.7v.8l-.4 1-.7 2-.5 1.2-.3.7v.4l-.3.7-.3.8-.4 1-.3 1-.1.5v.2q0 .2-.2.3l-.1.2v.2l-.4 1.7-.8 3.3q-.3 1.5-.3 2.4l-.1 1.2q-.2.4-.5.5m5-1.3q0-.2-.5-.5l-.5-.3-.2-.4-.3-.4v-1l.7-1.8 1-2.3.5-.7.4-.6v-.2l.3-.1.2-.6.3-.5.8-.9 1-1 .7-.6q.7-.5 1.4-.5t1.2.4l.5.3.8.6.8.6 1.2 1-.4 1.6q-.4 1.4-.1 2.3t.7 1.6l.4.5.8.3.5.1q.2.2.2.5 0 .8-.2 1.1t-.5.5a4 4 0 0 1-2-.1q-1-.3-1.9-1.8l-.4-.6-.3-.7-.3.4-.3.4q-2.2 2.5-3.8 3.3t-2.6.1m1.6-2.7.6-.3 1.3-1 1.7-1.7q.6-.6 1.2-1.6l.7-1.2-.7-1q-.3-.2-.5-.1-.4 0-1 .6t-1.2 1.6l-1.4 2.6-.6 1.4zm14.7 2.2h-1q-.4 0-.6-.2l-.4-.3-.5-.6-.5-.6-.1-1.3.1-1.8.5-1.7.2-.6v-.2l.4-.8.8-1.3.8-1 .6-.6.8-.5 1-.4 1-.3 1 .2q.5.1 1 .6t.7 1.3q.2.8.1 1.4l-.5 1q-.5.5-1 .6t-1-.4l-.2-.4.1-.6.1-.8q0-.4-.3-.3-.4 0-.7.3l-.7.8-.5.8-.6 1-.6 1.2-.3 1.4v.6l-.1.2q0 .4.5.6.3.2.6.1l.9-.4q.5-.2 1-.7l.9-.8.5-.4q.2-.2.2 0h.3q.2-.3.5-.3l.5.1.3.3.1.4v.4l-.2.3-.4.7-.5.8-.3.3h-.2l-.2.3-.5.4-.3.1-.4.2v.1q-.4.4-1.2.6zm15.3-.4-.4-.3-.5-.5-.3-.3-.5-.5-.4-.3-.3-.4-.3-.4-.5-.5-.6-.7-.4-.2-.1.6-.4 1.4-.3 1.2-.2.4-.2.2-.3.1h-.2l-1-.2q-.5-.3-.5-1-.2-.4.2-1.9.3-1.5 1.1-4l.3-1 .2-.8q.4-1.6 1-3l1-3 .4-.9.3-.6q0-.3.4-1l1-2 .5-1.2.4-.5q.2-.2.5-.2h.7l.6.1.4.5v.6q0 .4-.5 1.2l-.4.9-.2.5-.5 1-.1.3-.2.2-.1.1-.1.4-.2.6q0 .3-.3.8l-.2.6-.7 1.5-.4 1.4h.1l.2-.1.3-.3 1.5-1.1q.8-.6 1.4-.7l.6-.2h.5l.4.1q.4.2.7.8t.5 1.2l-.2 1-.6 1.6q-.3.7-.6 1l-.3.1-.1.2-.2.3-.3.4-.3.3-.1.3v.1h-.2l-.4.4-.5.4-.4.1-.3.2q-.2 0-.2.2t.3.4.7.8l.8.7.5.4.4.4.1.5v1l-.5.1-.8.2zm-2.3-6 .6-.5.9-.9.9-.9.6-.7.4-.7q.2-.5 0-.9l-.4.2-1.1.7-1.2.8-1.2 1-.8 1 .2.5q.2.3.5.4zm66.4 178.7q-.6-.4-.7-.7 0-.4.5-1.4l1.6-2.9 1.1-2.2.4-1.2v-.4l.1-.5q.1-.2.4-.3l.8-.5q.6-.4 1-1 .2-.7.6-1.3l1-1.8 1.8-2.7 1.5-2.5 1.9-2.5.7-.7.7-.2q.7 0 1.4.4t1.2 1 .7 1q.2.2.1 1l-.2 2q0 1.3-.3 2.6l-.3 3-.5 3.8-.4 3.8q-.2 1.8-.1 3.1v1q-.3.2-1 .1l-1.2-.2q-.6-.2-.6-.5l-.1-.2v-.6l.1-2 .4-5h-.5l-1 .1-1.7.1-1.6.2q-.7 0-1 .2-.3 0-.7.3l-.8 1-.5 1-.3.6-.4.3-.2.3-.3 1-.7 1.6-1 1.5-.8 1.2zm8-10.8h.3l.8-.1 1-.1 1.2-.2.8-.1h.5l.2.3h.2l.1-.7.3-1.5.3-1.8.3-1.8.1-1.4v-1.6q-.2 0-.8.7l-1.2 1.8-1.5 2.4-.6 1-.4.3-.4.5-.6 1-.5.8zm11 10.5q-1.1-.5-1.6-1t-.4-.9l.3-.3q.1-.2.7-.1l1.7.3h1.4l.5-.2q.1 0 0-.2l-.1-.2-.3-.2-.3-.1q0-.2-.3-.3l-.4-.4-1.3-1q-.6-.5-.4-.7v-.2q-.2 0-.4-.6l-.2-1.2q0-.6.3-1.3.3-.6.8-1.1t.9-1l1.3-1.1 1.6-1 1.8-.6 1-.1q.6 0 .9.2.2-.2.6.1.4.2.7.7l.6.8v1l-.2 1q0 .3-.3.3l-.1.2q0 .3-.5.7l-1.2.7q-.6.2-.8 0l-.4-.3-.3-.3v-.1l-.1-.3v-.3h.2l.7-.8.4-.6v-.7h-.3l-.8.2-1 .6-1 .6-.2.3h-.1q0-.1-.2 0l-.4.5-.5.6-.3.5q0 .3-.2.5v.5l.2.6.8.8 1.6 1.3.8.8.3.6q.5 1 0 1.7t-1.3 1q-.3.2-1 .3l-1.8.1q-.8 0-1.4-.3m10.2-.5q0-.3-.5-.6l-.4-.3-.2-.4-.2-.5q-.2-.2.1-.9l.8-1.8 1.2-2.2.6-.6.4-.6v-.2l.3-.1.3-.5.4-.5.8-.8 1-.9.9-.6q.6-.4 1.3-.3.8 0 1.3.4l.4.4.7.7.8.7 1.1 1-.6 1.6q-.4 1.3-.3 2.3t.6 1.7q.1.3.4.5l.7.3q.3 0 .5.2t.2.5q0 .8-.3 1.1l-.6.4a4 4 0 0 1-2-.3q-1-.4-1.7-1.9l-.3-.7-.2-.7-.8.8q-2.3 2.2-4 2.9-1.6.6-2.7-.1m1.9-2.6.7-.2 1.3-1 1.8-1.4q.8-.6 1.5-1.5l.7-1.1-.5-1-.5-.3q-.5 0-1 .6-.6.4-1.4 1.4l-1.7 2.5-.7 1.3zm21.8 3.9-.9-.4-.7-.8q-.3-.6-.2-1.4l.2-1.3.6-2.3v-.5l.2-.3-.1-.1q-.3 0-.7.3l-1 .7-.3.2-.2.2-.2.1-1 .8-1.4 1-1.2 1-.5.4h-.2l-.5-.1-.8-.5q-.4-.4-.4-.8l.3-1.2.7-2 1.1-2.4q.2-.3.2-.7l.2-1 .3-.7.3-.2h.3l.6.1q.3.1.5.5.5.5.5 1.2l-.1 1.3-.4 1-.2.4.3-.3q.3-.3 1-.6l1.2-.9.7-.4q.3 0 .5-.2l.2-.2h.1l.3-.1.5-.2.7.2.6.4.2.5v.2l.2.1.3.6q.2.3.2 1t-.3 1.6l-.5 1.9q-.3 1-.3 1.6l.1.9v.5l-.2.6q-.3.3-.8.3m7.4-.1h-.7l-.7-.1-.3-.2q0-.2-.2-.2l-.3-.2-.6-.5-.4-1q0-.6.5-2.1 0-1 .6-2.1t1.4-2.2l1.8-1.9 1.7-1.2q.4-.5 1.2-.5t1.3.4q.3.1.7.6l.7 1 .5 1 .1.7.1.6v1.2l-.4 1.1-.1 1.2v.9q.3.2.7 0h.8q.4.2.6.6t-.1.9l-.7.8-1 .6-1 .2q-.3 0-.6-.3l-.6-.8-.5-1-.1-.8-1.2 1-.9.8-.5.5q-.1.3-.6.5zm1-3 .9-.8.8-1 .9-1.2.8-1.1.4-1-.3-.7q-.2-.4-.5-.5-.4 0-1 .5t-1.5 1.6l-.3.5-.4.6-.2.4-.3.6-.4 1-.1.5v.5q0 .2.3.3t.8-.3M427.7 545h-1.3q-.6 0-1-.6-.3-.7-.2-1.5.2-.8.5-1.2l1-1.4 1.2-1.7 1.9-2.3 2.7-3.2 1.8-2 2.4-3 1.6-2.2q.6-1 .7-1.7v-.9q-.1-.2-.6-.3h-1.7q-2 .1-3.6.5l-3 .8q-.2.1-.5-.1l-.4-.4q.2-.2.1-.5l-.3-.4v-.6l.1-.5 1-.3 1.3-.4 1.4-.3 2-.3 1.5-.1h2.4q1.2 0 2.2.2t1.4 1 .3 1.2l-.4 1.6-1 2-1.8 2.7-2 2.6-2.9 3.4q-1.2 1.5-2.5 2.8l-1.4 1.7-1.5 1.7q-.3.5 0 .7t1.5 0l1.1-.3.9-.3 1.3-.3 2.7-.5 2-.3h.4q.2 0 .6.4.3.1.4.5v.7l-.4.7-.8.2-1.2.4-1.1.2-1.6.2-2.4.6-2.6.5zm20.5-5a5 5 0 0 1-2 .8 5 5 0 0 1-2 0 4 4 0 0 1-1.6-1q-.3-.3-.7-1.2t-.4-2.4.5-3.1a11 11 0 0 1 1.4-2.9q1-1.2 2.1-1.8l.9-.3q.4-.2 1.2-.2l1.4.2q.6.2.9.5.5.4.7.9.3.4.3.9 0 1-.7 2.3-.5 1.2-1.8 2l-1.2.4q-.8.2-2 0-.8 0-1 .4-.2.3 0 1.2 0 .6.3 1t.9.5l1-.1.8-.5.4-.4.4-.4.4-.4.3-.2h.3q.4 0 .7.3t.5.6l-.2.8-.7 1zm-1.4-7 .6-.5.7-.9.3-.6q0-.4-.6-.6t-1.2 0l-.5.5-.6.7-.6.8-.2.6.5.2h.8zm16.7 5q-.7 0-1.2-.2t-.9-.9l-.2-1v-1.1l-.1-1v-.2l-.1-.3q-.1-.5-.3-.6l-.6.1-1.4 1-1.4 1.5-1.6 1.6-.9 1.4q-.2.5-.6.6h-.5l-.7-.4-.6-.6-.4-.5v-1.8l.4-1 .2-.5.2-.6.2-1 .3-1.2.4-1.5.2-1.3v-.2l.1-.2h.1q.2-.2.8-.2t1 .3q.8.5.8 1.4.1.9-.6 2.5l-.4 1-.1.6.2-.2.6-.5.5-.5.6-.7 2-2 .8-.6.7-.3.8.1.9.4.5.5v.7l.2 1.3.2 1.4v1.3l.1.2v.1l.3.5.2.5.4.6q0 .4-.4.9-.3.4-.7.5m12.9-.8-1 .1h-.5q-.7-.4-.9-.7l-.2-.6-.1-1-.1-.6q-.2-.2-.5.3l-.8 1q-.8 1.1-1.5 1.7t-1.3.8l-1.3.2q-.6 0-1.1-.5l-.8-1.1-.3-1.5.3-2.4q.3-1.1 1-2.4.2-.5.8-1.2l1.3-1.3q.7-.7 1.3-1 .8-.5 1.4-.5h1.3q.5.2.7.1.3 0 .4-.3t.2-.7l.2-.8.5-2.1.5-2.1.8-2.6q.6-1.3 1-1.5.6-.1 1.3.5.4.3.5.9.1.5-.1 1.3l-.4 1-.4 1.2-.6 1.7-.5 2-.2 1.2-.1 1.2-.1 1q0 .4-.2.4l-.4 1-.1 1.6-.1 1.3v1.1q0 .7.2 1.3v.8q.2.6 0 1zm-7.5-1.6q.7-.1 1.3-.8l1.3-1.5.8-1.2.8-1.3.5-1q.3-.5.2-.6 0-.2-.3-.3l-.5-.1h-.6q-.7.3-1.1.8l-1.2 1.6-1 2.2q-.5 1-.5 1.6t.3.6m14.4 1.3q-1.7.2-2.8-.7t-1.3-3q-.2-1.1 0-2.5.3-1.5.9-2.8.5-1.4 1.3-2.5.7-1 1.5-1.6l.6-.3.8-.2h1.8a3 3 0 0 1 1.3.8q.6.5.8 1.7v.7l-.1.8q-.3 1-1 2.1-.7 1-1.6 1.6l-.5.2-.5.1h-1.2l-1-.4-.3-.2-.1.3-.2 1.1v.6l.1.8.3.6.4.2h.9l.3-.1.8-.5.8-.7v-.1l.7-.5.3-.2.3-.1q.4-.2.9.1.4.2.5.7l-.2.6-.6 1q-.3.4-.7.6l-.2.2h-.2q-.2.5-.4.5h-.3q-.1.3-.8.6zm.7-7.9.5-.1.4-.3q.7-.6.8-1.5t-.3-1.3l-.2-.1h-.2q-.3 0-.8.3l-.7.7-.6 1-.4.8h.2q.3-.1.4 0l.3.4q.2.2.6.1m9.8 6.2q-1.7.2-2.6-.8l-.4-1q0-.5.2-.7.2-.3.5 0 .5.2 1.3.1h.6q.3-.2.7-.2.8-.2 1-.6 0-.4-.3-.6l-1.7-.5-1.5-.7q-.7-.5-.8-1-.4-1-.2-2.1t1-2l.6-.7q.5-.5.7-.5.5-.7 1.3-1.2l1.6-1h.5l.7-.2h.5l.4.1q.4 0 .9.4.5.3.8.8t.4 1q0 .7-.4 1.5-.3.7-.8.9l-.2-.1-.4-.2h-.1l-.1-.2-.3-.5v-1h-.5l-1 .2-1 .7-1 .8-.3.6-.3.7-.2.5v.3q0 .3.6.6l1.7.5q1 .3 1.2.8l.7 1.1.2.5q.1.3 0 .4h.1q.4.5 0 1-.2.6-.8 1.2t-1.5.8zm8.8-1.2q-.2 0-.7-.5l-.9-.8-.4-.9.3-1.3.4-2q.2-.4.2-.9l.2-.9.4-1.3.4-1.6.4-1.4.6-1.8.4-1.5.5-1.6.6-2 .4-1.9.3-1.1v-.4l.2-.2.5-.2h.5q.4 0 .8.5t.6.9l-.3 2q-.3 1.4-1 3.3l-1.2 4-.5 1.9v.7l.2-.1.7-.6.7-.6.8-.8.6-.4.4-.4.5-.4q.6-.5 1-.4.3 0 .7.4t.3.9-.8 1.3l-1.4 1.2-1.3 1-.9.6.4.4.6.7.8 1.3.7 1q.4.4.8.5.4.2 1-.2.5-.2.9 0 .3 0 .6.3t.2.5q0 .3-.3.7l-1.7 1.2q-.7.5-1.6.1l-1.4-1-1.5-1.4-.2-.5-.3-.5-.4-.4-.1-.2-.4-.5-.4-.2-.2.3-.2.6-.3 1-.2 1v1.3l-.2.8q-.3.4-.8.5m360 169.8q-1.4-1-1.6-1.9t.7-1.4q.2-.1.8 0 .5.1.8.4.6.7 1.4.8t2 0q1.4-.4 2.1-1t1.7-1.6q.8-.8 1-1.6.4-.9.4-1.5t-.3-1.1q-.7-1.2-1.9-1.6t-3-.1h-.8l-.8.2h-.4l-.3.1-.4.3-.5 1.2-1.2 2.9q-.8 1.9-1.3 2.7t-.9.7-.7-.8l-.5-1q-.3-.5 0-1.1l.3-.5.3-.9.7-1.6 1.3-2.7 1.5-3.3 1.5-3.2 1.2-2.6.7-1.4q.2-.4 0-.5l-.2-.2v-.3q0-.2.6-.4l1.2-.3q.6-.2 1-.1h.3l.2-.1h1.8q2 .3 3.4 1.4t1.2 3.4q0 .5-.5 1.4l-1.2 1.6-1.4 1.5-.9.7-.8.5-.3.2.2.1.5.3q1.5.6 2.3 1.5t1 2.3q.2.5 0 1.2l-.3 1.4-.5 1.1-.4.5-.1.2-.3.5-.7.9-.7.9-1 .6q-.5.5-1.3.9l-1.3.6-2 .4h-2.1q-1-.2-1.5-.6m3-13.2h.4l1.2-.2q.7-.1 1-.3l.5-.2.6-.4 1-1q.6-.4 1-1 .6-.6 1-1.3.8-1.1.9-1.6t-.3-1l-.8-.5-1-.3-1.2.1-.7.3q-.2.2-.2.5l-.2.6-.4.4-.2.5-.2.2-.5.7-.9 1.8-.8 2zm11.4 11q-.1-.3-.5-.6l-.4-.4-.2-.4-.2-.4q-.2-.2.1-1l.9-1.8 1.2-2.1.6-.7.4-.5v-.2l.3-.1.3-.5.4-.5.9-.8 1-.8.8-.6q.7-.4 1.4-.4.8.1 1.3.6l.4.4.7.6.7.7 1.2 1.1-.7 1.6q-.4 1.3-.3 2.2t.5 1.7l.4.6.7.3q.3 0 .5.2t.2.5q0 .8-.3 1.1l-.6.4a4 4 0 0 1-2-.4q-1-.4-1.7-1.9l-.3-.7-.2-.7-.4.4-.4.4q-2.3 2.2-4 2.8-1.6.6-2.7-.2m1.9-2.5.7-.2 1.3-.9 2-1.4 1.4-1.5.7-1.1-.5-1q-.3-.3-.5-.3-.4 0-1 .5l-1.4 1.5-1.7 2.4-.7 1.3zm26.5 3.9-.7-.5-.8-1q-.3-.8-.2-2 0-.9.2-1.3.1-.4-.1-.4l-.6.2-1.3 1-2 1.8-.9.7-1 .6q-.4.2-.8 0l-.3-.4-.3-.5q-.2-.4 0-.6l1-2.4.5-1.2.2-.5h-.2l-.6.3-.5.4-.3.3-.4.4-.7.7-1.1 1-1 1-1 1.1-.6.5-1-.4a2 2 0 0 1-.6-1q-.2-.3 0-1.2l.8-3 .3-.8.3-.7.3-.8.5-1 .2-1v-.6q0-.5.3-.7.3-.3.7-.4h.6q1 .1 1.2.7.3.5.3 1l-.2 1-.2.5-.4.9-.6 1-.2.5v.2l.3-.1.7-.5.7-.6 1.3-.9 1.3-.8 1-.4q.6 0 1 .6.5.4.6.8.2.4 0 .8l-.2.7-.1.5-.3.6v.3l.1-.2.6-.4.6-.5 2.6-1.4q1-.3 1.6.7.4.3.5 1v2.6l.1.8.1.5.4.3.5.2q.4.2.4.8t-.5.9l-1 .3zm6.3.6-1-.2-1.3-.7-.8-.6q-.2-.3-.1-.5 0-.2.3-.2l.4-.2q.3-.3.4-1l.2-.8.2-.4v-.5l.3-.8.4-1.5.6-1.7.6-1.4q0-.3.3-.8l.4-.9 1-2.1 1.3-2.5 1.2-2.2.6-1q.3-.3.9-.2t.9.5l.5.7q.2.4-.2.8l-.4.7-.5.7-.7 1.4-.9 1.7-1 2.2-.5 1.1-.4.8-.4 1q-.3.3-.4 1.1l.3-.3.9-.8 2.3-1.9q1-.7 1.9-.6l1 .2.9.7.6.8q.2.6.1 1.5l-.3 1.9-1 1.6-.9 1.2-.9.7-.6.6-.5.4-.7.4-.7.2q-.7.5-2 .6t-2.3.3m1-2.4h.8l1-.5q1.6-.7 2.6-1.5 1-1 1.4-1.8t.4-1.7-.8-.5-2.3 1.7l-1.3 1.1-1 1.2-.6.6-.2.4q-.3 1 0 1m13.2 3.3q-.7.1-1-.1l-.6-.6-1-.7-.5-1-.2-.9.7-2.4q.5-1.3 1.2-2.5l1.7-2.1q1-1 2-1.3.6-.3 1.4-.2t1 .7q.3 1-.4 1.2h-.2l-.1.2.7.1 1.1-.1.8-.3h.8q.5.2.5.4l.1.4q0 .3.2.3t0 .4q0 .5-.7.9l-.8.4v.5q.2.6-.1 1.5l-1 1.7-1.8 1.7-2 1.3q-1 .5-1.8.5m.2-2.7h.5l.5-.3.4-.3.3-.2h.2l.2-.5.9-1.1.8-1.1q.3-.4.1-1l-.2-.1-.3-.2-.5.1q0 .2-.4-.1l-.5-.7-.5.5-1 1.2-.7 1.6-.4 1.4.1.6q.2.2.5.2m11.5 3.8h-.7l-.6-.4-1.1-1.4q-.4-.9-.4-1.4v-.7l-.1-.2.1-.2q.3 0 0-.4l.2-1.1q.3-1 .7-1.7l.5-1 .8-1 .7-1 1.3-1.2 1.3-.7 1.3-.2q.7 0 1.2.5.7.3 1.3.8t.8 1.3q.2 1 0 2.2 0 1.3-1.2 3.2l-1.3 2-1.5 1.4-1.6.8q-1 .4-1.7.4m3-4.7.7-1 .5-1.5q.2-.4.2-.9v-.9q0-.5-.2-.5h-.9q-.4 0-1 .7l-.9 1-.6 1.2-.6 1.7q-.3 1-.1 1.7t1 .4 1.9-1.9m7.1 7.9-.4-.1h-.6q-.6-.2-1-.7t-.4-1l.2-.5v-.6l.2-.4.2-.6.3-1.5.6-2.1.6-2.2.6-1.7.4-.8v-.6l.3-.7.3-.8v-.5l.4-.8.6-1.2.4-1.1.4-1 .2-.4v-.1l.6-1.4 1.5-3 .3-.5.2-.5q.2-.2.6-.2t.8.3q.5.1.6.5l.7.5-1.2 2.3-.8 1.6-.4.9-.1.4-.4 1-.4 1-.7 1.7-.3.8h6.4l1.2-.1 1.6-.2 1-2.8.6-2.2.8-2.1q.5-1.5 1.1-2.2.6-.6 1-.6t.8.5l.5.7q.4.3.3.8 0 .4-.5 1.2l-.9 1.8-.6 1.7-.1.6-.3.4-.2.4-.4.9-.2.5v.5l-.3.5-.3 1-.5 1.7-.7 2-.6 1.6-.1.6-.2.6-.4 1q-.2.5-.1.7l-.5 1.6-.4 1.5-.2.8h-.6l-.8-.2a2 2 0 0 1-.9-1q-.2-.7.1-1.4.2-.3.4-1.3l.6-2 .4-1.2.3-1.5.4-1.3.2-.6v-.3l-.7-.1-1.6-.1h-2q-1.1 0-2 .2H951l-.7 1.9-.4 1.5-.5 1.4-.2 1q0 .5-.3 1.4l-.5 1.8-.5 1.5zm16.4-.8-.3-.4-.2-.5v-.1q-.3 0-.3-.5t.2-.7l.1-.4v-.3l.1-.3v-.3l.2-.3.1-.4.3-.4.3-.6.3-.7.2-.5.5-1 .3-1 .1-.6v-.5h.3l.2-.2v-.1q0-.2.3-.4l.4-.4v-.2l.5-1.1 1.5-3.3q.6-.8.9-1.5l.4-.9.4-1h-.1q-.3.2-.6-.2l-.6-.8q-.3-.2-.1-.5l.1-.4.6-.3 1.1-.5 1-.3q.5-.2 1.1-.1l1.4.1 1 .3q1 .2 2.2 1 1 .8 1.5 2l.3 1.2v1.6l-.1 1.5-.9 1.4-1.2 1.5-1.3 1.2q-.6.5-.8.5h-.2l-.4.2-.6.3-.8.4-.6.1h-.3q-.2 0-.3.3l-.2.5v.7l.4 1 .5 1 .3.5.4.1.4.4 1 .9q.4.4.4.1l.3-.2.6-.1q.6 0 .8.3l.3.2v.6q0 .4-.4.9t-.8.8-.8.5q-1.1 0-2.3-.7-1.1-.8-2.1-2.2a13 13 0 0 1-1.6-3l-.2-1.2q0-.4-.4-.3h-.4l-.4.8v.5q0 .2-.2.2l-.2.3-.4.8-.3.8-.1.4-.1.5-.2.1v.3l-.1.3v.3l-.2.5-.3.4q-.1.2 0 .4l-.5.3-.7.3q-.5.2-.7 0m6.3-10.6q.2.7 1.2 0l1.6-.6.8-.5.5-.3.2-.2.6-.3.8-.8.7-1 .3-.8v-1.1l-.2-1-.4-.6q-.3-.3-1-.6-.4-.3-1.1-.4h-1.1q-.5.1-.3.4l.3 1a1 1 0 0 1-.2 1q0 .3-.5 1.3l-1 2-1 1.8zM270.3 387a4 4 0 0 1-2-1.4q-.8-1-1.3-2.4v-1.2l.1-1.3.2-.8v-.3l.1-.5.2-.6.2-.6v-.6l.3-.3.2-.4v-.6l.2-.3.2-.3.1-.2.2-.5.3-.9.4-.9.3-.5v-.1l.4-.7.1-.5.3-.7 1-1.7 1.1-2 1.2-1.7 1-1.2q.6-.6 1.1-.8t1 .2q.3.2.4.7t.1.8-.2.4l-.6.7-1 1.4-.9 1.6-.8 1.5-.8 1.6-.4.7v.1l-.1.2-.8 1.8-.7 1.7-.2.4v.2l-.2.2-.1.4q-.2 0-.2.4v.5l-.5 1.4-.3 1.6v1.1l.2 1 .7.5.6.3.6.1h.6l1.1-.1.9-.2.9-.2.7-.1q.3 0 .5-.2l1.2-.3h.6q.2 0 .3.5t.1.7l-.7.6-1.3 1q-.7.5-1.3.7l-1.8.3h-2q-1 0-1.5-.2m11-2.3-.3-.8v-1l.1-.7v-.4q.2-.2.1-.3l.1-.5.2-.6.6-1.3.6-1.6.5-1.5.2-.7q0-.4.5-.5t1 .4.8 1q.2.2.2.6l-.5 1.2-.3.9-.2 1-.4.7-.3.8-.1.6-.2.9-.3.7q-.3 1.3-1 1.5t-1.3-.4M285 372l-.5-.6-.2-.7v-.3q.4-.4.6-1l.6-1 .2-.2.2-.3q.4-.2 1 0 .8.4 1 1 .4.5.2 1.2 0 .6-.7 1.3a2 2 0 0 1-1.2.8q-.7.2-1.2-.2m6 20q-.8.2-1.8-.3t-1.7-1.4l-.3-.7-.5-1.1-.4-1v-.5q.2-.3.6-.4h1q.4.2.4.4l.2.4.2.5.3.4q.3.5.8.7.4.3.6.1.6-.4.8-1l.8-1.9.6-2 .6-1.6.2-.7.3-.4h.2l-1.2.9-1.3.8q-.2.2-1 .2l-1.4-.2-.7-.5-.5-.6-.3-.9q-.2-.5 0-1.5.1-1.1.6-2.2l1.1-1.7 1.6-1.7q.9-.7 1.5-.9l1-.3h1.2l.8.3.9.7 1 1.1.8 1.1q.2.5 0 1l-.4 1-.7.9q-.4.5-.5 1.1-.1 1-.6 2.2-.5 1.1-.7 2.2l-.6 2q-.8 2.6-1.8 3.8-1 1.3-1.6 1.6m-.5-11 1-.1 1-.5 1-1.2.7-1.4q.3-.7.2-1.5 0-.5-.2-.7t-.7 0l-1.1.4-1.2 1.2-.8 1.5q-.3 1-.3 1.6t.4.7m18.9 4.4q-.9.4-1.6.3t-1.3-.8q-.4-.8-.4-2.1v-.8l.3-1 .3-1.2.3-.6q.2-.3 0-.3l-.3.2-.2.2q-.9.7-1.5 1.5l-1.2 1.4-.8 1.3q-.3.6-.3 1t-.5.7-.8 0q-.6-.4-1.1-1.2t-.4-1.9l.3-2.7.6-2.5 1-3.4.9-2.1.6-1.7.4-.9.4-.8.5-1.2.2-.8.1-.4.2-.4.4-.6q.1-.2.3-.2l.5.2.7.4q.3.2.4.5l.2 1-.2 1-1 1.9-1 2-.8 2.2-.4 1.3-.5 1.6-.5 1.4-.1.8q0 .3.2.3t.5-.4l.5-.5.5-.5.6-.7.8-.8.8-.7.7-.2q.6 0 1 .3.4.4.7 1.1l.2.3v.2q.2.1.2 1t-.5 2.4l-.4 1.8q0 .5.2.5l.3-.1.8-.4q1-.6 1.3-.4t.4.6l-.2.7-.2.5v.1l-.4.5-1 .7zm7.4 2.6q-1.5 0-2-1-.4-.8-.2-2l.3-1.2q0-.5.3-.6v-.3q0-.4.3-1.1l.2-.5.1-.3q-.2-.2 0-.4l.3-.3q.2-.1 0-.3l.2-.6.6-1 .4-.8.1-.4.4-.9.5-1 .3-.4q.3-.2-.3-.3h-1.2l-1.6-.2q-.6 0-1-.3-.3-.4 0-1t.9-.7h1.3l1.3-.1 1.6-.1.1-.6.4-.5.1-.3.1-.5.3-.5.4-1.1.7-1.2.3-.7q.6-.7 1.1-.8.5 0 1 .3l.6.4.3.6q0 .4-.3 1l-.2.4-.2.6-.5.7-.4 1-.3.6-.2.2q0 .3.3.3h1.1l.8-.2.6.1q.2.2.2.7l-.1.8-.4.5-.7.2-1.2.1-1.7.2-.6 1-.4.8-.2.4-.2.6-.5.8-.4 1-.3.4v.2q0 .4-.2.6l-.3.3v.4l-.3.4-.1.8-.3.9v.7q0 .2.2.1h.8q.5-.2-.4 2.3l-1 1.2q-.6.6-.8.6m9.4-1.6q-1.1-.5-1.6-1t-.4-.8l.2-.4q.2-.2.8-.1l1.7.3h.7l.7-.1.5-.1q.1-.1 0-.2l-.2-.3-.2-.2h-.3q0-.2-.3-.4l-.5-.3-1.2-1q-.6-.5-.5-.7v-.2q-.2 0-.4-.6l-.2-1.2q0-.6.3-1.2t.8-1.3l.9-1 1.3-1q.7-.6 1.5-1l1.8-.7 1-.1q.6 0 .9.2.2-.2.6 0l.8.7.5.9v1l-.1.9q0 .4-.3.4t-.2.2q0 .3-.4.7l-1.2.7q-.6.2-.8 0l-.4-.3-.3-.3v-.1l-.1-.3v-.2l.2-.2.7-.7.3-.6.1-.5v-.2h-.4l-.7.2-1 .6-1 .6-.2.3h-.2l-.1.1-.4.4-.5.6q-.3.3-.3.5l-.2.6v.5l.2.6.9.7 1.6 1.4.8.8.3.5q.5 1 0 1.8-.4.7-1.2 1l-1.2.3h-1.7q-.8 0-1.4-.2m9 5.9q-.4.1-.9-.2l-.6-1a2 2 0 0 1 0-1.3l.2-.6.2-.7.2-.8.3-1 .4-.7.3-.8v-.6l.2-.5.3-.5.2-.5.3-.5.1-.6q0-.3.2-.3v-.3l.2-.3q0-.4.3-1l.6-1.5.5-1.6q.1-.7-.4-1-.2 0-.3-.5l.1-1q.1-.4.4-.5l.7-.2h.7l.4.1.1.2.3.3.4.8.1.6v.2h.1l.4-.2.7-.4.6-.4h.1l.3-.2a2 2 0 0 1 1.4-.1q.8.2 1.2.6.6.8 1 2a3 3 0 0 1-.2 2.3l-.3.5-.4.7-.2.3q-.7 1.1-1.6 1.9l-2 1.3-.9.4-1 .3h-.5q-.4-.3-.7-1.1l-.3.8-.2.5v.4l-.2.2v.1q0 .2-.3.4l-.5 1.5-.3.8-.2.7-.5 1.9q-.3 1-1 1.1m5-10.3.5-.2.7-.4.8-.5.6-.4.3-.5.1-.6.3-.5.2-.6.1-.5-.2-.5h-.6l-1 .6q-.6.3-1.2 1l-1 1.6q-.2.7 0 1 0 .5.4.5m10.8 5.2q-1.8 0-2.7-1t-.9-3.2q0-1.1.5-2.5t1.2-2.7l1.6-2.2q.9-1 1.8-1.4l.6-.2h1.6q.5 0 .9.2.7.3 1.3.9.5.7.5 1.9v.7l-.3.7q-.5 1-1.3 2t-1.8 1.3l-.5.2h-.5l-1.2-.2-1-.6-.2-.2-.2.3-.3 1-.1.7v.8l.2.6.3.3h1.2q.6-.1 1-.4l.8-.5h.1v-.2l.7-.3.3-.2h.3q.4-.1.9.2t.4.7l-.3.6-.7.8-.8.6-.2.1-.2.1q-.3.4-.5.4h-.3q-.1.2-.8.5zm1.8-7.7h.5l.5-.3q.7-.5 1-1.3.2-1-.1-1.4h-.2l-.2-.2-.8.2-.9.7-.8 1-.4.6h.2q.3 0 .4.2t.2.3.6.2m7.8 7q-1.2-.5-1.7-1.7t-.2-3v-1.4l-.5-.6-.5-.5-.3-.4.1-.6.3-.4.4-.2q.3-.1.4 0l.4.1.3.3q0 .2.4-.2l.6-1 .8-1 1-.7.8-.6 1.6-.4h.8q.6 0 1.2.5l1 .8q.4.3.5 1 .2.5.1 1.2t-.2 1-.7 1l-1.3 1-1.2.7-1 .2h-1l-.7-.2q-.3-.2-.4 0t-.3 1.1v.7l.1.3.5.6q.2.2.8.1.6 0 1.2-.7l1.2-1q.1-.3.6-.4l1 .1q.4.3.3.7 0 .5-.5 1.4-.1.3-.6.7l-1 .8-.7.6q-1 .5-2 .5zm2.5-7.1.8-.3q.3 0 .7-.4t.7-.8l.2-.6v-.3q-.3-.3-.6-.2t-.7.3q-.2 0-.6.4l-.8.7-.6.6q-.2.3 0 .4l.3.1zm14.2 8.2-.8.1q-.4 0-1-.4l-.3-.7-.1-1.2q0-.5.3-1.4l.4-1.9.5-1.8.4-1.1q.2-.8 0-1t-.7-.2-1.5.6-2 2.4q-.7 1.1-.9 1.9v1l.2.2.5-.1.6-.3.5-.2.7-.3q.2 0 .2.2l.1.6v.5l.4.5-.6.5-1.6 1-1.5.1q-.4 0-1-.4-.9-.6-1-2-.3-1.5.4-3.3.6-1.4 1.3-2.4l1.7-2 .8-.4 1.4-.6q.8-.3 1.3-.2t1.1.4.8 0l.5-.9 1.3-3.2q.6-1.7 1.4-3.3l.4-1q0-.3.2-.4l.9-.3q.4 0 .8.3.5.5.6.8l-.3 1.3-.9 2.3-1 2.4-1 2.5-.7 1.6-.4 1-.5 1.5-.3 1-.7 2-.3 1.3v2.2l-.2.4zM743.1 548l-1-.3h-.3v-.3q-.1-.2-.5-.2l-1-.8-1-1.2-.5-.9q-.3-.4 0-.5l.6-.3.7-.5q.4-.1.7.4.4.7 1.3 1.2t2 .6 2.3-.5q.8-.4.8-1t-.5-1.5l-.3-.4-.5-.4-1-.8-.9-.3-.8-.4-1.2-.7-1.2-1-1-1q-.5-.5-.6-1.3v-1.8l.5-1.8.6-1.2 1.1-1.5 1.2-1.4 1-1 .4-.5.3-.3.1-.1h.1l.7-.4q.5-.2 1.1-.8 2.1-1.2 3.6-1.6t2.4-.4q.8 0 1.6.3.8.4 1.3 1t.7 1.3q.3.8-.1 1.9l-1.1 2q-.7 1-1.5 1.5t-1.5.1q-.6-.2-.6-.8l.1-.6 1-1.3q1-1.6 1-2.2t-.7-.7h-.7l-1.2.3-1 .4-.5.2v.1q0 .1-.1 0l-.4.3-.9.6-1 .7-.8.6-.4.3q0 .4-.7.7l-1 1.1-1 1.9-.8 1.6q-.2.8 0 1.3t1 1l2 1.2 2 1.1 1.8 1.3q.7.6.9 1 .4.5.5 1.2v1.4l-.1 1q-.2.6-.7 1.2t-.8.5l-.5.3-.4.2q-.2.2-1 .4l-1.9.3zm12.3-3.8-.5-.1-.5-.4-.5-.7-.2-.6v-.8l.4-1.4.5-1.9.2-.9.3-1 .3-.8.4-1.6.5-1.7.8-2.5.9-2.9.5-1.4.2-.6q0-.3.3-.5.4-.3.7-.3.4 0 .8.5t.7 1.1-.2 1.4l-1 2.6-.8 2.8-.8 2.7-.2.5-.3.7-.2.5-.1.2-.1.5-.2.7v.4l-.2.5.5-.5.7-.7.8-.8.8-.6.6-.5.3-.3.1-.2.2-.1.2-.2.4-.3 1.2-.5.7-.1.8.2.8.9q.3.4.4 1l.1 1.4-.1 1-.2 1-.2 1.1h1.3l.3.2q.1.2.3.2.2.3 0 .8l-.6.7-1.4.7q-.5.1-1.2-.2t-.9-1q-.2-.5-.2-1.5v-2q.1-.7-.3-.7-.3 0-1 .4l-1.4 1-1.5 1.5-1.4 1.6-.7 1q-.5.4-1.1.5m16 .4q-.4 0-.6-.2l-.6-.4-1-1.3q-.4-.8-.4-1.3v-1.1q.3 0 .2-.4l.2-1 .7-1.7q.1-.4.5-.9l.8-1 .8-1 1.5-1.1 1.3-.7 1.5-.2q.7 0 1.2.5.8.3 1 .8.4.5.6 1.4.1 1-.1 2.4t-1.5 3.2q-.7 1.2-1.5 1.9-.7.7-1.6 1.2l-1.4.6zm3-4q.8-.7 1-1.5l.6-1.7.1-.7q.1-.4 0-.8 0-.5-.2-.5-.3-.2-.6-.1l-.7.4q-1 .9-1.7 2-.8 1-1 2.5-.1.8.2 1.3.3.3.9.1t1.5-1m6.2 9.7q-.4.2-1-.2-.4-.3-.6-.9a2 2 0 0 1-.1-1.2l.2-.7.1-.7.2-.8.3-1 .3-.8.2-.7v-.7l.2-.5.3-.4.1-.6.3-.6v-.5l.3-.4v-.2l.1-.4.2-1 .5-1.5.4-1.6q.1-.7-.3-.9-.3-.1-.4-.6v-1l.4-.5q.3-.2.7-.2h1.1l.1.2.3.3.4.8.3.6-.1.1h.1l.4-.2.7-.4.5-.4h.2l.3-.3a2 2 0 0 1 1.4-.2q.7.2 1.2.6.7.7 1 2a3 3 0 0 1 0 2.2l-.2.6-.4.7-.2.3q-.7 1.1-1.5 2l-1.9 1.4-.8.4-1 .3q-.5.2-.6 0-.4-.2-.7-1l-.3.9-.1.5v.4l-.2.2v.1l-.2.4-.5 1.5-.3.9-.1.7-.4 1.8q-.3 1-.9 1.2m4.4-10.5.4-.3.8-.4.7-.5.6-.5.2-.4.2-.7.2-.5q0-.4.2-.7v-.5l-.2-.4h-.6l-1 .6q-.6.4-1.1 1.2-.7.9-.9 1.6t0 1q.1.5.5.5m10 4q-.7 0-1.3-.7-.6-.8-.8-2v-.7l.1-1 .7-3.5.4-1.8.2-.8q.2-.5.9-.3t1.1 1l.3.5v1l-.5 2-.5 2.2v1.6q0 1.5-.2 2-.1.5-.4.5m2.5-13.4-.3.1-.4-.2-.5-.2-.6-.6-.3-.3v-1q0-.7.3-1.4t.8-.7l.5.1 1 .3.5 1.3q.2.7 0 1.5 0 .7-1 1.1m3.5 16.9q-.5 0-.8-.4l-.3-.6v-.4l.1-.3q.1-.4 0-.8l.1-1.6V541l.2-1.5.2-1.3.3-1.6v-1.4q-.2-.2-.6-.2l-1-.3q-.5-.3-.6-.7-.4-.3-.2-.5t.7-.5l1-.2h.9l.5-.4q.2-.3.3-1l.2-.7.3-.9.2-.3.3-.6q0-.5.3-1.2l1.3-2.2q1-1.4 2-2.4t2.2-1.2h.6l.6-.1q.7 0 1.2.3t.8.9.2 1.2q-.1.7-.4 1.1l-.6.8-.9.8-.5.4q-.2 0-.5-.3t-.4-.3v-.7l.4-.7.4-.6-.1-.3-.2-.4.3.2h-.4l-.5.1-.7.6-.4.4a4 4 0 0 0-1 1.7l-.8 1.7q0 .3-.4 1l-.5 1.3-.4.9-.1.4q-.1.2 0 .2h1q1.5-.3 2.1-.1t.8.7q.6.7-.2 1.1l-2.6.7h-.8l-.5.1-.2.1q-.2.1-.3.7v.7l-.2.8-.1.8-.2.7-.1 3.3-.2 2.7q0 1.1-.5 1.7l-.6.6q-.5.2-.7 0m7.4 2.8q-1 .2-2.2.1-1 0-1.7-.5-.8-.3-1-.8-.2-.8.2-1.1t.9-.5l.7.1.8.5q.6.3 1.4 0a3 3 0 0 0 1.3-.7l1-1.2.8-1.4 1.1-2.2q.7-1.3 1-2.3l.3-.6.3-.6.3-.7.1-.5.3-.7.4-1 .5-1.4.5-1.5.6-1.2q.2-.5.5-.6l.5-.2.7.1.6.8q.3.3.2.9 0 .5-.4 1.4l-.5 1.4-.5.8-.3 1-.3.8-1 2-.6 1.6-.6 1.6-1.4 2.3-1.3 2-1 .8-1.1 1zm3.7-7.4q-.5 0-1.1-.6l-1-1.2q-.4-.6-.3-.9v-.3q-.2 0-.4-.6l-.2-1.4V532q0-.5.2-.9l.3-.4q1.2-.5 1.8.5t.5 3.3v2.5q0 1.1.3 2t.8 1.1q.3.1.2.6l-.2.9-.5.8q-.2.3-.4.3M81.6 469.5l-1-.2h-.3v-.3q-.2-.2-.5-.2l-1.1-.8-1-1-.6-.9q-.3-.4 0-.6l.5-.3.7-.5q.4-.1.7.4.5.7 1.4 1.1a5 5 0 0 0 2.1.4q1.2 0 2.3-.6.7-.4.7-1t-.6-1.4l-.3-.4-.6-.4-1-.7-1-.4-.8-.3-1.2-.6-1.3-.9-1-1q-.5-.4-.7-1.2l-.1-1.9.4-1.7.6-1.2 1-1.7q.5-.9 1.1-1.4l.9-1 .5-.6.2-.3.1-.1h.1q.1-.2.7-.4t1-1q2.1-1.2 3.6-1.7 1.4-.5 2.3-.6l1.6.3q.8.3 1.4.9.6.5.8 1.3.3.7 0 1.8l-1 2.2q-.7 1-1.4 1.5-.9.4-1.6.2-.6-.2-.6-.8v-.6l1-1.4q.8-1.6.8-2.2t-.6-.7l-.7.1-1.2.4-1 .4-.5.2v.2q-.2 0-.5.3l-.8.6-1 .7-.8.7-.3.3q0 .4-.7.7-.6.5-1 1.2l-1 2-.5 1.6q-.2.8 0 1.3t1 1l2.1 1 2.2 1 1.7 1.2q.8.6 1 1 .4.5.6 1.2v2.3l-.6 1.2q-.4.7-.8.7-.3 0-.5.2l-.4.3-1 .4q-.8.3-1.8.4-1 .3-1.7.3m15.8-4.2a5 5 0 0 1-2 .8 5 5 0 0 1-2-.1 4 4 0 0 1-1.6-1q-.4-.4-.7-1.2-.4-1-.4-2.5t.6-3a11 11 0 0 1 1.6-2.9q1-1.2 2.1-1.7l.9-.3q.5-.2 1.2-.2.8 0 1.4.3t.9.5q.5.4.7.9t.2.9q0 1-.7 2.3t-1.9 2l-1.2.3q-.8.2-2 0-.8 0-1 .3-.3.3-.1 1.3l.3 1q.3.3.9.4h1l.8-.4.4-.4.5-.5.4-.3.3-.2h.3q.3 0 .7.3l.5.6q0 .3-.3.8l-.8 1zm-1.1-7.1.6-.5.7-.8.3-.7q0-.3-.5-.5t-1.2 0q-.3 0-.6.4l-.6.7-.6.8-.3.5q.2.2.6.2h.8zm6.1 6.4-.6-.6q-.4-.3-.4-1l.1-1.5.3-1.6.2-1.4.4-2 .7-2.2.5-1.5q.4-.3 1-.4.7 0 1 .2t.3 1q0 .7-.7 2.2l-.3 1-.2.6v.3l.7-1 1-1 1-.8.6-.5.6-.4.4-.2q.7-.4 1.6-.4t1.1.4l.3.4.2.1h.1v.2l-.3.7q-.4.4-1 .5l-.6.2-.8.4-2 1.5q-1 .6-1.9 1.8l-.4.5-.4.7q-.2.2-.3.8l-.2 1v.9l-.4.7q-.3.5-.7.7t-.9-.3m14.7-1.4q-.2.2-.7.3t-.9-.3q-.6-.5-1.2-2.1t-1-4.6V454l-.1-1.2q.3-.3.9-.2l1 .1.4.5q.2.3.3 1l.3 2.5v2l.2 1 .2.2.4-.5.5-1 .4-1 .6-.9.4-.6.2-.5.3-.5.7-1 .4-.5h.5l.5-.3q.2-.2.6 0l.2.2.1.2v.8l-.4 1.3q-.1.6-.3.7l-.3.3q0 .3-.4.9l-.7 1.4-1 1.6-.8 1.3-.6.9zm9.1 0q-.8 0-1.4-.7-.6-.8-.9-2v-1.7l.6-3.5.2-1.8.2-.8q.1-.5.8-.4.7.2 1.3.9.2.2.2.6v1q0 .7-.3 2l-.3 2.1v3.7q-.1.5-.4.5m1.7-13.5-.3.2-.3-.2-.6-.2-.7-.6-.2-.3v-1l.1-1.3q.3-.7.7-.8h.6l1 .3.5 1.2q.3.8.2 1.5t-1 1.2m7 12.4-1 .3-1.4-.2-.5-.3-.9-.6-.5-.5q-.6-.7-.5-2.2 0-1.4.6-3.5l.6-1.3.8-1.4.6-.8.3-.2q.4-.1.9-.5l.5-.2.8-.2q.5-.2.6-.1.7 0 1.4.3l1.2.9q.5.5.4 1l-.2.4-.2.7-.3.5q-.2.2-.6.2l-.7-.2-.4-.6-.5-.4-.4-.2q-.3 0-.7.6l-.7 1.2-.7 1.3-.2 1.3-.1.8q-.1.3 0 .8.2.5.4.5h.8l1-.4 1.2-.4 1-.5q.5-.5 1-.4h.6q.4.1.4.6t-.2.9l-.7.8-.9.7-.3.4-.3.2h-.2l-.5.2q-.5 0-1 .3zm9.6-.9q-1.3-.4-1.9-1.5t-.6-3l-.1-1.3-.6-.6-.5-.4-.3-.4v-.6l.2-.4.4-.3q.3-.1.4 0h.4l.3.3q.2.2.4-.2l.5-1.1.7-1 .9-1 .8-.6.6-.2 1-.3.7-.2q.6 0 1.2.4l1.1.7q.5.3.6.9.3.5.3 1.2t-.2 1-.6 1l-1.1 1.3q-.6.6-1.1.8l-1 .2-1 .1h-.7q-.3-.2-.4 0l-.1 1.2v.6l.2.4.5.5q.2.1.8 0t1.2-.8l1-1.3q.1-.2.5-.3h1q.4.2.5.6 0 .5-.4 1.5 0 .2-.5.7l-.8 1-.8.6q-.9.6-1.8.7zm1.6-7.4.8-.3q.4-.1.6-.5l.7-.9v-.9q-.3-.3-.6-.1-.3 0-.6.3l-.6.5-.7.8-.5.7q-.2.3 0 .3 0 .2.3.2zm-51.3 44.6a4 4 0 0 1-1.9 0 4 4 0 0 1-1.6-.8q-.6-.7-.7-1.7-.2-1 0-2.3 0-1.4.5-2.8t1-2.3l1.2-1.6 1-1 1.1-.3 1-.2 1.1.3q.7.2.7.6l.2.1q.2 0 .4.5l.5 1q.2.5 0 .9L99 490q-.2.6-.5.7h-.3v.2q0 .2-.4.2H97l-.4-.4v-.4l.1-1v-1.1q-.3-.3-.9 0-.7.5-1.2 1.2t-.8 1.7l-.5 3q-.2.8 0 1.2l.3.4h1l.8-.4.9-.6.8-.8.3-.4.3-.4q.2-.4.6-.5h.8l.6.2q.3.2.4.5t0 .3h-.1v.2l-.3.6-.7 1-.9 1q-.4.4-.6.4-.3 0-.3.2l-.4.4-1 .6zm8.5-1.7-.8-.5q-.4-.3-.4-.6v-1.2l.1-1.3v-1.2l.4-1.1.5-2.5q.3-1.2.4-2.5l.6-2.2.6-2.4.3-1.7.5-1.7.3-.5q0-.3.2-.5l.3-.2.6-.2.5.1.3.2.5.6q.3.3.3.5v.3l-.2.5-.2.4-.3.6-.1 1-.2.7-.2.8-.2.6-.4 1.5-.4 1.5-.3 1.6-.5 1.6q-.2.4-.2 1v1l-.3 1.2-.1.6-.2 1.4q0 .7-.2 1.2l-.1.7-.5.7q-.2.2-.6 0m7-.1-.7-.1-.6-.4-1.1-1.3q-.4-.7-.4-1.2v-.8l-.1-.1.1-.2q.2 0 .1-.4V491l.7-1.7.5-.9.7-1.1.8-1 1.4-1.2q.6-.5 1.3-.7l1.4-.3q.8 0 1.3.4.8.3 1.1.8t.6 1.3v2.4q-.2 1.4-1.3 3.3-.6 1.3-1.4 2l-1.5 1.3q-.7.5-1.4.7zm2.9-4.2q.6-.7.8-1.4l.6-1.8v-1.5q0-.5-.3-.5-.3-.2-.6 0-.2 0-.6.4l-1.7 2q-.7 1.1-.8 2.7 0 .8.2 1.2.4.3 1 .1.6-.3 1.4-1.2m14.3 3h-.7l-.7-.7-.4-.7q-.2-.4-.2-1.2l-.1-.9q0-.2-.3 0l-1 1.1q-.7.9-1.4 1.5t-1 .6l-.7-.2-.8-.6-.6-.8q-.3-.7-.2-2 0-1.2.3-2.5l.7-2.6q.5-1.3 1-2 .4-.8.8-.8t1 .5l.7.9.1.4-.2.4-.6 1.1-.7 1.7-.5 1.6-.3 1.3v.4q.5 0 .8-.3l1-.8 1-1.5.9-1.7.7-1.5.5-1.1.6-1.3q.1-.5.4-.6h.8l.5.2.5.3q.3.2.3.4l-.3 1-.3.9-1 2.8-.5 2.7.1 1.1q.1.6.3.8l.2.4.4.4q.3.1 0 .5l-.6.5zm12.2-1-.8.2q-.4 0-1-.3l-.5-.7-.2-1.1.1-1.4.3-2 .2-1.8.3-1.2v-1l-.8-.1q-.7 0-1.5.8-.7.9-1.5 2.5-.7 1.3-.8 2v1l.3.2.5-.1.5-.3.6-.3.6-.4q.2 0 .3.2l.1.6.1.4.4.5-.5.6-1.6 1q-.9.4-1.4.4t-1-.3q-1-.4-1.3-1.9-.4-1.4 0-3.3.5-1.5 1.1-2.5l1.4-2.1.8-.6 1.3-.7q.8-.4 1.3-.3.6 0 1.1.2.6.1.8 0l.4-1 1-3.3q.4-1.8 1-3.5l.3-1 .1-.5.9-.3q.3-.2.8.2l.7.7-.1 1.3-.6 2.4-.8 2.5-.7 2.6-.5 1.6-.3 1.1-.3 1.6-.3.9-.4 2-.2 1.4v1.1l.3 1.2-.1.4zm997.7-210.1-.3-.2-.6-.2-.6-.2a1 1 0 0 1-.7-.6v-1l.3-.5.1-.6.2-.4.2-.6.5-1.5.7-2 .8-2.1 1.1-2.4v-.4l.1-.3.4-.6.3-.8.1-.5.5-.8.6-1.1.5-1 .5-1 .2-.4v-.2q.2-.1.8-1.2l1.6-3 .5-.7.3-.6q.5-.5 1-.3t.7.6l.5.9.3.5-1.4 2.2-1.5 2.3-.2.4-.4 1-.5 1-.8 1.7-.4.7h.6l1.7.1 2 .2 3 .1h1.7l1.2-2.7.8-2.1 1-2.1q.6-1.5 1.2-2l1-.5q.2 0 .4.3.3 0 .5.4l.3.4q.5.4.3.9 0 .5-.6 1.1l-1 1.8-.8 1.6-.1.6-.3.3-.3.5-.4.8-.2.5-.2.5-.2.4-.4 1-1.5 3.7-.7 1.5-.2.6-.2.5-.4 1-.3.7-.5 1.6-.5 1.7-.1.8q-.9 0-1.3-.3-.3-.4-.7-.5-.6-.4-.6-1t.3-1.2q.3-.3.5-1.2l.7-2 .6-1.2.5-1.4.5-1.2.3-.5v-.3l-.6-.2-1.5-.2-3.8-.1h-1l-1-.2h-.8l-.3.6-.5 1.2-.6 1.5-.6 1.5-.8 2.3-1.2 3.2zm17.7-2-.5-.5-.3-.4q0-.1-.2-.4 0-.3-.2-.5-.1-.2.2-.9l1-1.8q.5-1 1.3-2l.5-.7.5-.5v-.2l.3-.1.3-.5.4-.5 2-1.5.9-.5q.8-.4 1.4-.3.7 0 1.2.5l.4.5.7.7.7.7 1 1.1-.6 1.6q-.6 1.2-.5 2.2t.5 1.7l.3.6.7.3.5.2.2.6q0 .7-.4 1l-.6.4a4 4 0 0 1-2-.4q-.9-.5-1.5-2l-.5-1.5-.4.4-.4.4q-2.5 2-4.2 2.6-1.6.5-2.7-.3m2-2.4.8-.2 1.3-.8 2-1.4q.8-.5 1.5-1.4l.8-1-.5-1-.5-.3q-.4-.1-1 .4l-1.5 1.4-1.8 2.3-.8 1.4zm12.1 3.6-.6-.7q-.3-.3 0-1 0-.8.3-1.5l.5-1.6 1.3-3.2 1-2q.5-.9 1-1.3.3-.3 1-.3.7.1.9.4t.1 1q-.2.8-1 2.1l-.6.8-.4.7v.2l.9-.7 1.1-.8 2-1.1.5-.2.5-.1a3 3 0 0 1 1.6-.1q1 0 1 .6l.2.4.2.1.1.2q0 .3-.5.6-.4.4-1 .4h-.7q-.3.2-.8.3l-2.3 1q-1 .5-2.1 1.5l-.5.5-.6.6-.4.6-.4 1-.1.6-.2.3-.3.6q-.4.5-.9.5-.3.2-.8-.4m14.7 1.4-.8.2a1 1 0 0 1-.8-.4q-.5-.7-.8-2.4t0-4.7l.4-2.4.1-1.2q.4-.2.9 0 .6 0 1 .2l.3.5v1.2a33 33 0 0 1-.4 5.4v.3l.6-.5.6-.9.7-.8.7-.8.5-.5.3-.5.4-.4.8-1 .6-.3h1q.1-.3.6 0l.2.2v.3l-.2.7-.6 1.2q-.2.6-.4.6l-.1.1-.2.2-.6.8-1 1.3-1.2 1.3-1 1.2-.9.7zm9.8 2.3q-1.7-.1-2.6-1.2-.8-1.1-.6-3.2 0-1.2.6-2.5t1.4-2.6q.9-1.2 1.9-2.1a5 5 0 0 1 1.8-1.2l.7-.2h.7l1.7.4q.8.3 1.2 1 .6.7.4 1.9l-.1.7-.3.7a7 7 0 0 1-3.3 3l-.6.2h-.4l-1.2-.3-1-.6-.2-.3-.2.3-.4 1-.1.6v1.5l.4.2.5.2h.7q.6 0 1-.3l.8-.5h.1v-.2l.8-.2.3-.2h.3q.4 0 .8.3t.4.7q0 .3-.4.6l-.7.8-.9.5-.2.1h-.2q-.3.4-.5.4h-.3q-.1.2-.9.4t-1.4.1m2.4-7.5h.5l.5-.2q.9-.5 1.2-1.3.3-1 0-1.3l-.2-.2h-1.1l-.9.6-.8 1-.5.6h.2q.3 0 .4.2l.2.4q0 .2.5.2m8.2 8.2q-1.6-.2-2.3-1.3l-.2-1q.1-.6.4-.8.2-.2.5.1t1.1.4h1.4q.8 0 1-.3.3-.3 0-.6l-1.6-.8-1.3-1q-.6-.7-.6-1.2-.2-1 .3-2.1t1.3-1.9l.9-.4.7-.4 1.5-.8q.8-.4 1.9-.6h1.3l.3.2h.4q.4.2.8.7t.6 1q.3.4.2 1l-.7 1.3q-.6.7-1 .7l-.2-.1-.3-.2h-.1l-.1-.3-.2-.5.1-.6q0-.3 0-.4l-.3-.1h-1q-.7 0-1.3.4l-1 .6-.5.5-.4.6-.3.4-.1.3q0 .4.5.8l1.5.9q.9.4 1 1l.5 1.7v.5q.3.5-.1 1t-1.1.9q-.8.3-1.7.4zm10.3.8-.7-.5-.7-1-.4-.8v-.2q-.2-.1-.2-.9l.3-1.7.3-1.4.7-1.3.6-1.6 1-1.7-1.2-.5-.3-.3-.1-.3q0-.3.3-.7l.5-.5.6.1h1.6l.2-.4.4-.5.4-.6.4-.6.6-.8.4-.5.5-.5q.3-.2 1-.3t1 .4l.3.7q0 .3-.3.7l-.7 1-.7.8q-.6.7-.3.8h1.8q1 0 1.3.3.4.4.4 1 0 .8-.2.9h-4.6l-.4.2-.2.3-.5.7-.7 1-1.8 5v.9q0 .2.8.4h2.1l1.5-.6.6-.3.3-.1q.3-.2.5.1l.4.8-.3.9q-.1.4-1.3 1-1.5.7-3 .7zM281.3 54.4q-.7-.3-1-.8l-.2-1 .2-1.2.5-1.7.5-1.5q.3-.8.4-2l.8-2.3.6-1.7.1-.7.3-.7.5-1.3.6-1.7 1-2.6.8-2 1-1.8q.3-.7 1-.9.7-.1 1.4.1t.9.9l.3.7.2 1.2.3 2.4.3 3.3q0 1.5.2 2.8t.6 2.3l.2 1.4.3 1.6.3 1.3.3.5q.2 0 .4-.3l.5-1.2.7-2.8 1-5 .4-1.8.3-2.5.3-1.8.3-1.7.2-.8v-.7l.2-.5.1-.7v-.9l.4-.5q.3-.7.8-.7t1.1.3.6.7q.1.4 0 1.6l-.6 3.4-.1 1.1-.4 1.7-.2 1.6-.2 1.6q-.1.7-.3.7-.6 3.6-1.4 6.2l-1.4 4.2q-.7 1.8-1.8 2.4t-2.3-.7l-1.1-1.6q-.5-.8-.8-1.8l-.6-2.8-.4-2.6-.4-2.6-.2-3q0-1.7-.2-2t-.5.3l-.6 1.9-.5 1.5-.5 1.6-.5 1.4-.2.8-.4 1-.4 1.3q-1 3.1-1.4 5.3l-.7 2.9-.5 1.1q-.3.2-1.1-.2m21.5-4q-.4 0-.7-.2l-.6-.4-1-1.3q-.5-.7-.4-1.3v-.7q-.1-.2 0-.2V46q.2 0 .2-.4v-1l.8-1.7q.1-.4.5-.9l.8-1.1.8-1 1.4-1 1.4-.7 1.4-.3q.8 0 1.3.5.7.3 1 .8t.5 1.4q.2 1 0 2.4t-1.4 3.2l-1.5 2q-.7.7-1.6 1.2l-1.4.6zm3-4q.7-.7 1-1.4l.5-1.8.2-.6v-.9q-.1-.4-.3-.5-.3-.2-.6 0-.3 0-.7.4l-1.7 2q-.7 1-1 2.5 0 .8.2 1.2.4.4 1 .2t1.4-1.1m8.7 3.7q-.4 0-.8-.4l-.8-.8q-.4-.4-.5-.8l-.1-.1v-.1q-.2-.1-.3-.8v-1.7q0-1 .2-1.5l.4-1.4.4-1.6.8-2-1.3-.2-.4-.3-.1-.3.2-.7.4-.5h.6l.9-.1h.5q0-.2.2-.3l.2-.3.2-.6.4-.6.3-.7.4-.8.3-.6.5-.6.9-.4q.7-.1 1.2.3l.3.6-.2.7-.6 1-.5 1q-.5.8-.2.8.3.1 1.8-.2.9-.2 1.3.1t.6 1q.1.7-.1.8t-1.5.3l-1.3.2h-.8l-.6.1-.3.1-.4.2-.2.4-.4.7-.5 1.2-.7 2.7-.3 2.4v1q.2.2.9.2h1l1.1-.3.7-.4.7-.4.6-.3.2-.2q.2-.3.5 0l.5.7-.1 1q-.2.5-1.2 1-1.3 1-2.8 1.3t-2.2.2m10.5-.6q-.7 0-1.3-.8t-.8-2V45l.7-3.5.4-1.7.2-.9q.1-.4.8-.2t1.2.9l.3.6v1l-.5 2-.4 2.1v1.6l-.2 2q-.1.6-.4.6m2.3-13.5-.3.2-.3-.2q-.3 0-.6-.3l-.6-.5-.3-.4v-1q0-.7.3-1.3t.7-.7h.6l1 .3.5 1.3q.2.7 0 1.5 0 .7-1 1.1m4.9 13.4h-.7l-.6-.3-1.3-1.3q-.5-.8-.5-1.3v-.8q-.3-.1-.2-.2l.1-.2q.2 0 0-.3v-1.2l.6-1.7.4-1 .6-1.2.7-1 1.1-1.3q.6-.6 1.3-.9.6-.3 1.2-.3t1.2.4q.8.2 1.5.7t.9 1.2q.3 1 .2 2.2t-.9 3.3q-.5 1.3-1.1 2l-1.3 1.6-1.5 1zm2.5-5 .6-1.1.4-1.5v-1.8q0-.5-.3-.5h-.8q-.5.2-1 .9l-.8 1-.4 1.3-.5 1.8q-.2 1 0 1.7.4.6 1 .3.8-.3 1.8-2m16.1 3.5-1-.2-.7-.9q-.3-.5-.4-1.3l.1-1.3.4-2.3.1-.6V41q-.3 0-.7.3l-1 .8-.2.2-.2.2-.2.2-1 .8-1.2 1.2-1.2 1-.4.4-.2.2-.5-.2-.9-.4q-.4-.4-.4-.8l.2-1.2.6-2q.3-1.3.9-2.5l.1-.8v-1l.4-.6.2-.3h.9l.6.5q.5.5.6 1.2v1.3l-.4 1-.1.4.3-.4.8-.6 1.2-1 .7-.4.4-.3.2-.2h.1l.4-.2.4-.1h.7l.6.4q.3.2.3.5v.2l.2.1.4.5q.2.3.3 1L352 42l-.3 2-.2 1.6q0 .5.2.9v.4q.1.3-.1.7t-.8.3m777.2 64.8-1.1-.5-1.3-.8-1-1.2-.5-1.8-.2-2.1.1-3 .8-3 .4-1 .3-1 .7-1.4 1-1.9 1.5-2.3a14 14 0 0 1 4.2-4.2q.6-.6 1.7-.7a4 4 0 0 1 2.2.2 3 3 0 0 1 1.7 1.7q.3.7.4 1.6 0 1-.3 2.2t-.8 2.2l-1.1 1.6q-.4.4-1.1.2l-1.2-.6-.3-.6.1-.2.5-.8.6-1.1.4-1q.1-1.5.2-1.9 0-.4-.2-.7-.2-.1-.4 0l-.8.3-1.7 1.4q-.9 1-1.8 2.4l-2 3.1q-.8 1.4-1.2 2.8l-.2.5v.3l-.1.7-.3.8q-.3 1.5-.3 2.9t.3 2.3.8 1.5q.5.2 1.1 0 .6 0 1.5-.4l1.7-.9 1.4-.8.9-.7.6-.4q.4-.3.7-.3.4 0 .7.3t.3 1q0 .5-.6 1.1t-1.3 1.2l-.7.5-.9.4q-.7.6-1.6 1l-2 1q-.9.2-1.8.1m12.5-4-.6-.1-.5-.4-.4-.6-.2-.7v-.8l.3-1.4.5-1.9.2-.9.3-1 .2-.8.4-1.6.5-1.7.7-2.5 1-2.9.4-1.4.2-.7q0-.2.3-.5l.7-.3q.4 0 .9.5t.6 1.2-.2 1.3l-.8 2.7-.9 2.8-1 3.2-.2.7-.3.5v.2l-.1.5-.2.7v.4l-.1.5.4-.5.7-.7.8-.8.8-.7.6-.5.3-.2.1-.2.2-.2.2-.2.3-.2.6-.4.7-.2.6-.1q.5 0 .8.3.5.2.9.7l.4 1a6 6 0 0 1 0 2.4l-.1 1.1-.3 1.1h1.3l.3.2.3.2v.7l-.6.7-1.3.7q-.6.2-1.2-.1l-1-1-.2-1.5v-2q0-.7-.3-.7l-1 .5-1.4 1-1.5 1.5-1.3 1.6-.8 1a2 2 0 0 1-1 .5m14.6-.2q-.1-.3-.6-.5t-.4-.4l-.2-.3-.3-.4v-1a20 20 0 0 1 2.2-4.8l.4-.6v-.2l.3-.1.2-.6.4-.5 2.5-2.5q.6-.5 1.3-.5t1.3.4l.4.4.8.6.8.6 1.2 1-.4 1.6a5 5 0 0 0 .6 3.9l.4.5q.3.2.8.2.2 0 .5.2.2 0 .2.5 0 .8-.2 1.1l-.6.4q-1 .2-2 0-1-.5-1.8-1.8l-.4-.7-.3-.7q0 .2-.3.4l-.4.5a14 14 0 0 1-3.7 3.2q-1.6.7-2.7 0m1.6-2.7.7-.2 1.3-1 1.7-1.6q.7-.6 1.3-1.7l.6-1.2-.6-.9-.5-.2q-.4 0-1 .6t-1.2 1.6l-1.5 2.6-.6 1.4zm14.5 2h-.4l-.7-.2-.3-.1-.4-.5-.3-.9q0-.6.5-1.4l.3-1 .4-1.3.4-1.4.2-.8v-.7q-.1-.3-.6-.3l-.6-.2-.2-.8.2-.8.5-.6.8-.2 1-.1q.4 0 .7.2l.4.5.3.9.1.6.7-.7.8-1 2.1-1.1q.4 0 1 .3l.6.5.5 1.1q.1.6-.1 1-.3.6-.9 1-.6.3-1.4.3l-.5-.5-.2-.6-.3.2-.6.7-.6.7q-.6.7-1 1.9l-1.4 2.9-.5 1.5q-.2.8-.5.8m13.5 6.3q-.6.3-1.5.2l-1.8-.5-1.5-1-.6-.7-.3-.9.1-.5q.3-.2.7-.2h.7l.3.2.7.5.7.4q.5.1.8 0 .4 0 .7-.4l.4-1q.2-.5.3-1.2v-.4l.6-3q.3-1.5.5-2.1h-.2l-.2.1-.4.2-.3.2-.7.4-1.2.4h-.3l-.9-.2-.9-.5-.4-.6-.2-.6v-.7q-.1-.5.3-1.7.5-1.3 1.4-2.6.6-.6 1.6-1.2.8-.7 2-1.2 1-.5 1.6-.5h.3l.4.1q.5.1 1 .6.7.4 1.1 1.1a6 6 0 0 1 .7 2.3l-.1.9-.3.4-.2.1h-.2l-.2.2q-.3 0-.4.3l-.3.8v.4l-.1.3-.1.2v.2l-.2.4-.1.3v.4l-.1.3-.2.6v.3l-.1.7-.1.7-.1.7-.2.6q-.5 2.8-1.2 4.3t-1.3 2m-2.6-12.4q.1.8 1.3.6 1-.2 2.4-1.5l.9-1q.4-.7.5-1.3.2-.5 0-.7 0-.2-.5-.2t-1.3.3l-1.3.8-.7.8-.4.2v.3l-.1.2-.4.5-.3.5zm12.9 6q-1.8.1-2.8-.8t-1.1-3.1q0-1.2.3-2.6a16 16 0 0 1 2.5-5q.8-1 1.6-1.5l.7-.3.7-.1 1.8.1q.7.3 1.3.8t.6 1.9v.7l-.2.7q-.3 1-1.1 2a5 5 0 0 1-2.2 1.7h-1.7l-1-.5-.3-.2-.1.3-.3 1v1.5l.3.6.3.2h1.2l1-.5.7-.6h.1v-.1l.7-.4.3-.2.3-.1q.5 0 .8.2.5.3.5.7l-.2.6-.7.9-1 .7-.1.1q-.2.4-.5.5h-.3q-.1.2-.8.5t-1.3.3m1.2-7.7q.3 0 .5-.2l.5-.2q.8-.6.9-1.5c.1-.9 0-1-.2-1.3h-.2l-.2-.1q-.3 0-.8.2l-.8.7-.7 1-.4.7h.1l.5.1.2.4zm10.3 6.4q-.7 0-1-.3l-.6-.7-.4-.4v-.3h.3l.1-.1.1-.2h.3l1.4-.5 2-1.3 2-2 1.3-2.4-.1-.5q-.1-.3-.7-.3-.4 0-1.4.8l-2.1 1.7-1.5 1.7-.5.7-.5.7-.2.2q0 .1-.3.4l-.6.2-.4-.2-.3-.5-.5-.3-.2-.6v-.7l.2-1 .4-1.7.6-2.4v-.2q.2-.3.2-.7l.1-.7.2-.4.3-.8.8-2.4.4-1.3.6-1.5.5-1.5.6-1q.2-.7.5-.8l.5.1.9.4q.4.2.6.5v.8l-.5 1.2-1 2.4-1.9 5.5-.5 1.8-.1.7.8-1 1.3-1.2.7-.5.8-.4.6-.2.7-.2 1-.2q.8 0 1.3.5t1 1.1q.4.6.4 1.7 0 1-.5 1.8l-.3.4-.1.3-.5 1-1 1.3-1.4 1.3-3 1.8zm12.2-.8q-1.3-.4-1.8-1.5a5 5 0 0 1-.4-3q0-1.2-.2-1.4 0-.3-.5-.6l-.4-.4q-.4-.3-.4-.5v-.5l.3-.4.4-.3q.3 0 .4 0h.4l.3.3q0 .3.4-.2l.5-1q.3-.6.8-1l1.7-1.5.6-.3 1.8-.3q.5 0 1.2.4.9.5 1 .8.5.3.6.9l.2 1.2q0 .7-.2 1 0 .4-.6 1l-1.2 1.2-1.1.7-2.1.3-.7-.1-.4.1-.1 1.1v.6l.1.4.5.5q.3.2.9.1.6 0 1.1-.8l1.1-1.2.6-.3h1q.4.2.4.7t-.5 1.4q0 .3-.5.7l-1.6 1.6q-1 .6-1.9.6zm2-7.3q.5 0 .8-.3.3 0 .6-.4l.7-1 .1-.5v-.4h-.6q-.3 0-.6.3l-.7.4-.7.7-.5.7q-.3.3 0 .4-.1.1.3.1zm12.7 6.2a4.7 4.7 0 0 1-4 .6 4 4 0 0 1-1.6-1l-.7-1.3q-.3-1-.2-2.5t.7-3 1.7-2.8 2.2-1.7a5 5 0 0 1 2.1-.3l1.4.3q.6.2.8.5.6.5.8 1l.1.9q0 1-.8 2.2-.7 1.2-2 1.9-.5.3-1.2.3h-2q-.8-.2-1 .2-.2.3-.2 1.2 0 .7.3 1 .3.5.9.6h1l.8-.4.4-.4.5-.4.7-.5h.3q.4 0 .7.3.4.3.5.6l-.3.8-.8 1zm-.8-7.2.6-.5.8-.7.3-.7q0-.4-.5-.6t-1.2 0q-.3 0-.6.4l-.7.7-.5.7-.4.5.6.3h1.6m-98.8 330.2h-.3l-.7-.2h-.6q-.5 0-.8-.5-.3-.3-.2-.9l.1-.5v-.7l.1-.4v-.6l.2-1.6.3-2.1q0-1.2.3-2.2 0-1 .3-1.8l.2-.9v-.6q0-.3.2-.7l.1-.8v-.6l.3-.8.3-1.3.3-1.1.4-1.5v-.1l.4-1.4 1.4-4.8q.4-.5 1-.4.4 0 .8.4l.6.7.4.5-.8 2.4-.7 1.8-.3.9v.4l-.3 1-.2 1.2-.4 1.7-.3.8.7-.2 1.6-.2 2-.3 1.9-.2 1.1-.3 1.6-.4.5-2.9.4-2.2.5-2.3q.3-1.5.8-2.2.5-.6.9-.7l.4.2.6.3q.3 0 .4.3.4.3.4.8t-.3 1.2q-.4 1-.6 2l-.4 1.7v.6l-.2.4-.2.5-.2.9-.1.5v.6l-.2.4-.2 1-.2 2-.8 4.2-.1.6-.2 1-.1.8-.1 1.7-.1 1.7v.9h-1.3q-.4-.4-.8-.4-.6-.3-.8-.8t0-1.3q.2-.3.3-1.3l.5-3.3.2-1.5.2-1.3.2-.6v-.3h-.7l-1.5.1-3.7.8h-1l-1.5.3h-.3l-.1.7-.3 1.3-.3 1.7-.2 1.5v1l-.5 3.2zm23.7-6-.7-.8-.5-1.3-.1-.6-.1-.5-.2.6-.4.6-.5.6-.8.7q-.9.8-1.8.8t-1.5-.6q-.5-.3-1-1-.3-.5-.3-1.4a12 12 0 0 1 .7-5.2l.8-2.2.3-1h1.2q.7 0 .9.5.2.3.1 1.2 0 1-.5 2l-.6 2.2-.2 1.8q0 .8.5.8.3.1.8-.1t1.2-1.3 1.2-3.2l.2-1.2v-1.1l.1-.9.6-.7.3-.3h.3l.5-.1q0 0 .3.2l.4.3q.4.3.5 1.2a8 8 0 0 1-.4 2.8l-.6 2v1.4q0 .6.2 1 0 .4.6.7.4.2.5.7l.2.9q0 .3-.5.4a2 2 0 0 1-1.7 0m8-1.1q-.7 0-1-.2l-.7-.6-.4-.4v-.3h.3l.1-.2v-.2h.4l1.4-.6 1.7-1.5 1.9-2 1-1.8.2-.8-.2-.5q-.1-.2-.7-.2-.4 0-1.3.8l-2 1.9q-.8.9-1.3 1.8l-.5.8-1 1.3q-.2.3-.5.3l-.4-.2-.3-.4-.5-.3q-.3-.2-.3-.6v-.7l.1-1 .2-1.7.2-1.7q.1-.6.2-.7l.1-.3v-.7l.2-.7v-.4l.4-.8q0-.7.4-1.9l.1-.6.4-1.3.4-1.6.4-1.5.5-1.1.4-.8.6.1.9.3.6.4.1.3v.6l-.4 1.2-.8 2.4-1 3.4-.5 2.3-.4 1.8v.7l.7-1 1.2-1.4.7-.4.8-.5.6-.3.6-.2 1-.3q.8-.1 1.3.4t1.1 1q.5.6.5 1.7a4 4 0 0 1-.3 1.8l-.3.4q-.1.2 0 .4l-.5 1-1 1.4a11 11 0 0 1-2.7 2.6l-1.3.8-.7.2zm13-1.3a4 4 0 0 1-2-.2l-1.4-1q-.6-.6-.7-1.3v-.4l.4-.2.4.1.5.3 1.2.3 1-.2q.5-.3.5-.7l-.2-.5-.4-.8a6 6 0 0 1-1.3-2l-.5-2.2q0-.4.3-1l.8-1.3 1.3-1.2q.8-.7 1.6-1l1.2-.7h2.2l1 1q.4.8.5 1.4l-.2.6-.5 1.4-.2.5q0 .5-.6.5t-1-.4a2 2 0 0 1-.5-1l.1-.8.3-.5-.1-.1h-.2q-.3 0-.8.3a6 6 0 0 0-1.8 1.5l-.4.8q-.2.4-.1.8 0 .5.3 1l.5 1 .2.3.5.6q1.5 2.3.8 3.5t-2.7 1.6m7.7 6.6-.7-.4-1-.7q-.4-.3-.4-.6v-1l.2-2 .3-2.4.4-2.2.3-1.1.4-2.3.5-2 .6-2.2.4-2q.1-1 .5-1.7l.2-1q0-.3.3-.4l.6-.4.4-.2q.6-.2 1 .4.3.2.2.7l-.2 1.1v.7l1-.4h.8l1-.1h.7q.8-.1 1.1.1l.6.6.5.4.3.5v1.3a7 7 0 0 1-1.1 3q-.4.7-.9 1l-.5.4-.2.2-.6.6-1.4 1-1.3.5-.7.2h-1.1l-.1.1-.3 1q-.3 1-.5 2.8l-.6 3.2-.4 2-.1.9zm2.4-13.2q.1.2.7 0a7 7 0 0 0 2.4-1.3q.6-.6.6-1l.9-1.3q.1-.3-.1-.6-.5-.4-1.1-.3-.6 0-2 1l-.6.5-.3.5-.3 1-.2 1zm12.9 3.1q-.7.2-1 0l-.8-.4-1-.6-.7-.9-.3-.7q0-1.2.2-2.5t.7-2.7 1.3-2.4 1.7-1.7l1.4-.3q.7 0 1 .5.6.8 0 1.2h-.3v.3h.6l1.2-.4.7-.4.3-.2h.5q.5 0 .6.3l.1.4q0 .3.3.3t.1.4q0 .4-.6 1l-.7.6q-.1 0 0 .4.4.6.2 1.5t-.7 1.9a11 11 0 0 1-3 3.5q-1 .8-1.8.9m-.3-2.7q.2 0 .5-.2.3 0 .4-.3l.3-.3.3-.3h.2l.1-.6.7-1.2.6-1.2q.2-.5 0-1l-.3-.1-.3-.1q-.3 0-.5.2l-.4-.1-.6-.6-.5.6-.7 1.4-.4 1.7-.1 1.4q0 .5.2.6zm11 1.6-.8-.3-.8-.7-.5-.8-.2-.1v-.1l-.3-.8-.1-1.7v-1.5l.3-1.4.3-1.7.7-2-1.4-.1-.4-.2-.1-.3q0-.3.2-.8l.3-.5h.6l.8-.2.5-.1.3-.2.1-.4.2-.6.3-.6.3-.7.3-.9.3-.6.4-.6.9-.5q.6-.2 1.2.2l.3.5-.1.8-.5 1-.5 1.1q-.4.8 0 .8.3 0 1.7-.3.8-.3 1.4 0t.5.8q.3.7 0 1l-1.4.3-1.3.3-.8.1-.5.1-.4.1-.4.3-.1.4q-.2.2-.3.7l-.5 1.3-.6 5.1.1 1q.2.1.9.1l1-.1q.7-.1 1-.3l.8-.4.6-.5.5-.4.3-.2q0-.3.5 0l.5.6v1q-.1.5-1 1.2-1.5 1-2.8 1.5-1.4.3-2.2.3M1114.9 665q-.6.1-1-.4-.6-.6-.5-1v-1.4q0-1 .4-2l.3-1.6.1-1 .1-.5.2-.7.2-1.1.2-1 .3-1.8.3-2 .4-1.6.1-1q.3-.4.3-.7l.1-.5.2-.4v-.6l.1-.2q.1-.1.2 0t.2-.2v-1.1l2.8-.4v1l-.5 1.5-.2 1.2v.7l-.3.7-.3 1.4-.3 1.7-.3 1.6-.1.8q-.3.4-.4 1.5l-.6 2.8-.5 1.6-.3 2-.4 1.8q-.2.6-.4.7zm-2.2-18.7q-1.3.3-1.8 0-.5-.4-.4-1 0-.4.3-.7l1.3-.6.9-.3 1-.3 5-1.2 1.5-.3.7-.1h2.9q.8 0 1.2.4.6.4.7 1 .2.3.1.5l-.3.4-1.1.5q-.4.3-1 .1l-.4-.2-.7-.1h-1.5l-1.6.3q-.6 0-.6.3l-1.9.3-1.5.4-.9.2-1 .2zm10.4 15.3q-.2-.2-.7-.5l-.4-.3-.3-.4-.3-.3v-1a21 21 0 0 1 1.4-4.3l.4-.7.3-.6v-.2l.3-.2.2-.5.3-.6.7-.9.8-1 .8-.7q.6-.6 1.3-.6t1.3.3l.4.3.9.5.8.6 1.3.9-.3 1.6a5 5 0 0 0 .9 3.8q.2.4.5.5l.7.2.5.1q.3.2.3.5.1.8-.1 1.1l-.5.5q-1 .3-2 0-1-.1-2-1.5l-.8-1.4q0 .2-.3.5 0 .3-.3.5a14 14 0 0 1-3.5 3.4q-1.5 1-2.6.4m1.4-3 .6-.2 1.2-1.1 1.6-1.8q.6-.6 1.1-1.7l.6-1.2q-.4-.7-.7-.9l-.6-.2q-.3 0-.9.7l-1 1.7-1.8 4.1zm16.1 1-1-.1-.7-.7q-.3-.2-.3-.4v-.2h.2l.1-.2.1-.2h.3q.6 0 1.4-.6l1.8-1.5 1.8-2 1.2-2.6-.2-.5q-.1-.3-.6-.2t-1.4.8q-1.3 1-2 1.9-.8.8-1.3 1.8l-.5.8-.4.7-.2.2q0 .2-.3.4l-.6.3-.4-.2-.3-.4-.5-.4q-.2-.1-.3-.5v-.7l.1-1 .2-1.8.2-1.6.3-.7v-1l.2-.7.1-.5.3-.8q0-.7.4-1.8l.1-.6.4-1.3.4-1.6.4-1.5.5-1.1.4-.8h.6l.9.4.6.4.2.3v.6l-.5 1.2-.8 2.4-1 3.4-.5 2.3-.3 1.8-.1.7.7-1 .6-.7.7-.7.6-.4 1.4-.8 1.7-.5q.7-.1 1.3.4t1 1 .5 1.7a4 4 0 0 1-.3 1.8l-.2.4-.2.3q0 .3-.4 1l-1 1.4q-.5.8-1.2 1.4-.7.8-1.5 1.3l-1.3.8-.7.2zm10.8-2-.8-.5q-.4-.3-.5-.7v-1.1l.1-1.3V653q0-.6.3-1.2l.4-2.4.4-2.6.4-2.1.6-2.5.2-1.7q.1-1 .5-1.8l.2-.5.2-.4.3-.3.6-.2.5.1.4.2.5.6.2.5v.3l-.1.4-.2.5-.2.6-.2 1-.1.7-.2.8-.2.6-.3 1.5-.3 1.5-.3 1.7-.4 1.6-.2 1v1l-.3 1.2v.6l-.1 1.4q0 .8-.2 1.2l-.1.7-.5.7q-.2.2-.6 0m8.2.4q-1.7.2-2.9-.7-1-.9-1.3-3-.1-1.1.1-2.6.3-1.3.8-2.8t1.3-2.4q.8-1.2 1.5-1.6.3-.2.7-.3.3-.2.7-.2h1.7q.8.1 1.4.7.7.6.8 1.8v1.4l-1 2.2q-.8 1-1.7 1.5l-.5.3h-1.7q-.5 0-1-.3l-.3-.2v.3l-.3 1v.7l.2.8.3.6.3.2h.9l.3-.1q.6-.2.9-.6l.7-.6h.1v-.2l.7-.4.2-.2.3-.2q.4 0 .9.2t.5.6l-.2.7a4 4 0 0 1-1.2 1.6l-.2.1-.2.1q-.2.5-.5.5h-.2q-.2.3-.8.6zm.6-7.9q.3 0 .5-.2.3 0 .5-.2.6-.7.8-1.6 0-.9-.4-1.3h-.4q-.3 0-.7.2l-.8.8-.6 1-.3.8.1-.1.5.1.2.4zm8.5 5.5q-.5.1-.9-.1l-1-.7q-.5-.4-.6-.8-.2-.6-.1-1.6 0-1 .5-2.2.3-1 1-2.3t1.4-2.1a8 8 0 0 1 2-1.6q.3-.4.5-.4l.4-.1.7.2 1 .2.9.6.5.9.3 1q.4.8.3 1v.4l-.2.3v.5l-.3 1.4q0 .6.2 1 .3.8.8.8t1-.7l.8-.4h.5v.1h.3l.2.4v.7l-.2.6q-.5.6-.4.7s0 0-.1.2l-.3.3q-.6.5-1.5.6t-1.3-.2l-1.1-.7q-.5-.5-.7-1l-.2-.2-.8.7-.5.6-.2.3-.2.3-.2.1h-.3l-.4.5zm.3-2.7.5-.3.9-.8 1.5-1.9q0-.3.3-.5l.8-1.4q.1-.6-.3-1.1-.2-.3-.4-.3t-.8.3l-.7.8-.8 1.3-.6 1.4-.5 1.3-.1.9.1.2zm18.7.9-.7-.8-.5-1.3-.2-.5v-.6q0 .3-.3.7 0 .3-.3.5l-.5.6-.8.7q-.9.8-1.8.9t-1.5-.7q-.6-.3-1-1-.3-.5-.3-1.4a12 12 0 0 1 .7-5.2l.8-2.2.3-.9 1.2-.1q.7 0 .8.5.3.3.2 1.2 0 1-.5 2l-.6 2.3q-.2 1-.2 1.7 0 .8.4.8h.9l1.2-1.4q.6-1 1.2-3.2l.2-1.2v-1.1l.1-.8.6-.8.3-.3h.3l.5-.1q0 0 .3.2l.4.4q.3.1.5 1.2a8 8 0 0 1-.4 2.7l-.6 2v1.4q0 .6.2 1 0 .4.6.7.4.2.5.7l.2 1q0 .2-.5.4a2 2 0 0 1-1.7 0M721.9 75l-1-.3-.3-.1v-.3l-.5-.2-1-.8-1-1.2-.4-1q-.3-.4 0-.5l.6-.3.7-.4q.5-.1.7.4.4.8 1.3 1.3a5 5 0 0 0 2 .6q1.2 0 2.3-.4.8-.3.8-1 .1-.6-.4-1.4l-.3-.4-.5-.5-1-.8-.9-.4-.8-.4-1.1-.7-1.2-1-.9-1.1q-.5-.5-.6-1.3V61q.2-1 .6-1.7l.7-1.1 1.2-1.6 1.2-1.3q.6-.7 1-.9l.5-.5.3-.3.1-.2h.1l.7-.3q.5-.2 1.2-.8 2.1-1 3.6-1.4t2.4-.4 1.6.5 1.3 1 .7 1.4q.2.7-.3 1.8l-1.2 2q-.7 1-1.5 1.4t-1.5.1-.6-.9l.2-.6q.1-.4 1-1.3 1-1.5 1-2.1.1-.6-.5-.7-.2-.1-.8 0-.5 0-1.2.3l-1 .2-.5.3q0 .2-.1.1l-.5.2-.8.6-1 .6-.9.6-.4.3q0 .4-.7.7l-1.1 1-1.2 1.8-.7 1.6q-.2.9 0 1.4.1.5.8 1l2 1.2 2 1.3 1.7 1.3q.7.6.9 1 .4.6.4 1.3v1.4l-.2 1-.7 1.1q-.4.6-.8.6l-.6.2-.3.2-1 .3-2 .3zm11-2.7-.6-.5q-.4-.2-.4-.4l-.2-.4-.3-.4q-.1-.2.1-.9l.8-1.9 1.1-2.2q.3-.2.5-.6l.4-.6.1-.2.2-.1.3-.5q0-.2.4-.6l.8-.8 1-.9.8-.6q.7-.4 1.4-.4t1.2.4l.4.4.8.7.8.6 1.2 1-.6 1.7q-.4 1.2-.2 2.2t.6 1.7l.4.5.8.3.4.2q.3.1.3.5 0 .7-.3 1t-.6.5a4 4 0 0 1-2-.2q-1-.4-1.8-1.9l-.3-.7-.2-.7-.4.4-.4.5q-2.2 2.3-3.9 3-1.6.6-2.7 0m1.8-2.7.7-.3q.5-.2 1.3-.9 1-1 1.8-1.5t1.4-1.6l.7-1.1-.6-1q-.2-.2-.5-.2-.4 0-1 .5t-1.3 1.6l-1.6 2.5-.7 1.3zm13.1 3.7q-.6.1-1-.4-.6-.5-.8-1.4-.2-1 .1-2.2l.3-.7V68l.3-1 .8-2.5.3-.6q.2 0 .3-.2v-.5l.1-.6.3-.4v-.4l.2-.3v-.3l.1-.2.6-1.3.8-2.1.8-2.2.6-1.8.3-1 .2-.4.4-.3h.5l.5-.2v.2l.5.4.5.5.2.6-.1.8-.4 1.1-.9 2-.5 1.1-.3.7-.2.4-.2.6-.3.8-.5 1-.4 1-.2.5v.2l-.1.3-.2.2v.1l-.5 1.7-1 3.3q-.4 1.4-.4 2.3t-.2 1.2q-.2.4-.5.6m7.6.2q-1.8 0-2.7-1t-1-3.2q0-1.1.4-2.5t1.2-2.7l1.6-2.3q.9-1 1.7-1.3l.7-.3h1.6l.9.2q.7.2 1.2.9t.6 1.8v.7l-.3.7q-.4 1-1.3 2t-1.7 1.4l-.5.2h-.5q-.7 0-1.2-.2l-1-.5-.2-.2-.2.3-.3 1V70l.1.7.4.2.5.1h.7l1-.5.7-.5h.1v-.2l.7-.3.3-.2.3-.1q.5 0 .9.2t.4.8l-.3.6-.6.8-.8.6-.2.1-.2.1q-.3.4-.6.4h-.2q-.1.2-.8.5t-1.4.3m1.6-7.7.6-.1.4-.3q.8-.5 1-1.4t-.1-1.3l-.2-.1h-.2l-.8.2-.9.6-.7 1-.4.7.2-.1q.2 0 .3.2l.3.4q.1.2.5.2m8.8 7.3q-1 0-1.8-.5l-1.4-1.1q-.5-.7-.5-1.4v-.4l.4-.1.4.2q.3 0 .5.3l1.1.4h1q.6-.3.6-.6l-.1-.6-.3-.8q-.8-1.2-1-2.2l-.3-2.2q0-.4.4-1l1-1.1 1.5-1.1 1.7-.9 1.3-.4h1.2q.7.1 1 .3.4.4.8 1.2t.3 1.3l-.2.6-.5.8-.2.5-.3.5q-.2.5-.7.4t-.9-.5a2 2 0 0 1-.4-1q0-.5.3-.8t.3-.5v-.1h-.3l-.7.1-1 .5q-.6.3-1 .8-.4.3-.6.8l-.2.8.2 1 .4 1 .2.4.3.6q1.2 2.4.4 3.6t-2.9 1.2m10 3.5q-.5 0-.8-.5t-.2-.5v-.5l.1-.3.1-.7.1-1.6.2-2.2.2-1.4q0-.7.2-1.3l.3-1.6q.2-1.1 0-1.4 0-.2-.4-.3l-1.1-.3q-.4-.3-.6-.7-.3-.3-.1-.5t.7-.5l1-.1h.9l.5-.4.4-1 .2-.7.4-.8.1-.4.3-.5q0-.5.4-1.2L780 55q1.1-1.4 2.2-2.3 1-.9 2.3-1l.5-.1h.6q.7 0 1.2.3.5.4.8.9.2.4 0 1.2 0 .8-.3 1.2l-.6.7-1 .8-.5.3-.5-.2-.4-.4v-.7l.5-.7q.4-.4.4-.6t0-.3q-.2 0-.3-.4l.3.3-.4-.1-.5.2q-.6.3-.7.5l-.4.4a4 4 0 0 0-1.1 1.6l-.8 1.7-.5 1-.5 1.2-.4 1-.2.3v.3h1q1.5-.3 2.1 0 .7.1.8.7.5.7-.3 1t-2.6.7h-1.3l-.2.1q-.2.1-.3.7l-.1.7-.1.8q-.2.3-.2.8l-.2.7-.3 3.3-.3 2.7q-.1 1.1-.5 1.7l-.7.5q-.5.2-.7 0m11-3.3-.7-.1-.7-.3-1.1-1.4q-.5-.8-.5-1.3v-.8l-.1-.1V69q.3-.1.1-.4l.1-1.1.6-1.8.5-.9.7-1.1q.3-.7.7-1l1.2-1.3q.6-.5 1.3-.8.6-.2 1.3-.2.6 0 1.2.4l1.3.7q.6.5.9 1.3.2 1 .1 2.2 0 1.3-1 3.3l-1.3 2-1.4 1.4q-.6.6-1.6 1t-1.7.5m2.8-4.8.7-1.2.5-1.5V64q0-.4-.2-.4h-.9q-.4 0-1 .7l-.8 1.1-.5 1.2-.6 1.8q-.2 1 0 1.7t1 .3 1.8-2m6.3 3.7-.6-.5q-.3-.4-.3-1l.3-1.6.4-1.6.3-1.3.7-2 .8-2 .7-1.5q.4-.4 1-.4t1 .3q.4.3.2 1-.1.7-.9 2.2l-.4.9-.3.7q-.1.2 0 .2.2-.4.8-.8l1-1 1.1-.7.7-.5.6-.3.5-.1a3 3 0 0 1 1.6-.3q.9 0 1 .5l.3.4.2.2h.1v.1q0 .3-.4.7t-1 .4l-.7.2-.8.3-2.2 1.3q-1 .5-2 1.6l-.4.5-.5.6-.4.8-.2 1-.1.6-.1.3-.4.6q-.3.5-.7.6t-.9-.4m13.8.6h-1.1q-.3 0-.5-.2l-.4-.4-.4-.6-.5-.5v-1.4l.2-1.8.5-1.7.3-.5v-.2l.4-.8 1-1.3.8-1 .6-.5.9-.4 1-.3q.5-.3 1-.3l1 .2q.5.2.8.7.6.6.8 1.4t0 1.4-.6 1-1 .4q-.6 0-1-.4l-.1-.4v-.6l.2-.8q0-.4-.3-.3-.4 0-.6.2l-.8.8-.6.7-.7 1-.6 1.2-.4 1.4v.3l-.1.2v.2q0 .4.4.7l.6.2 1-.4 1-.6q.4-.5.9-.8l.5-.4h.3v.1l.3-.1q.2-.3.5-.2t.5.2l.2.2.2.5-.1.3-.2.3-.5.7-.6.7-.2.3-.3.1-.2.2q-.2.3-.5.4h-.3l-.4.2v.2q-.4.3-1.2.4zm14.8-.3a5 5 0 0 1-2 .6 5 5 0 0 1-2-.3 4 4 0 0 1-1.5-1.1q-.3-.4-.6-1.3t-.1-2.5.9-3a11 11 0 0 1 1.8-2.6q1-1.2 2.3-1.6.4-.2.9-.2h1.2q.8 0 1.4.3l.8.6q.5.5.7 1t0 1q0 1-.8 2.1t-2.1 1.8l-1.3.3-2-.2q-.8-.2-1 .1-.3.4-.2 1.3 0 .6.2 1t.8.6h1l.9-.3.5-.4.4-.4.5-.3.3-.1h.3q.3 0 .7.3l.4.7q0 .3-.3.7l-.9 1zm-.4-7.2q.3 0 .7-.4l.8-.8.3-.6q0-.4-.5-.6-.4-.3-1.1-.1-.3 0-.7.3l-.7.7-.6.7-.3.5q.1.2.5.3h1.6M933 80.6q-.4 0-.7-.3l-.4-.6q-.3-.4-.3-1.3t.4-2.8q.1-1.3.3-1.9t0-.8v-.6l.1-.5q.2 0 .4-.4l.2-1 .1-.8V69l.3-.9.4-1.3.4-2 .4-2 .4-1.6.4-1.4q.2-.4 0-.5-.3-.2-.3-.8t.5-1.2q.3-.5.8-.7l1.2-.3 1.5-.1 1.2-.1h.8l.7.1.8.3.4.1.1.3h.4l.7.4 1.2.8q.6.5.8 1l.6 1q.2.4.1 1.3v1q0 .5-.2.7l-.3.3-.1.4-.2.7-.5 1.1-.7 1.3-.7 1-.9 1.1-1 .9-1.7 1-2 .7q-1 .3-1.6.3l-1.2.4-.3.6-.2 1-.1.6-.2.7-.3 1.4-.4 1.6-.2 1.3-.4.7q-.4.3-.7.3m3.4-11.1q.1.1.8 0l1.6-.7 1.3-.7 1.2-.8.6-.6.8-1.3.3-.6.3-1q.3-.5.5-1.3.2-1 0-1.5-.3-.8-.9-1.3a3 3 0 0 0-1.3-.7h-1.1l-1 .1q-.5.2-.7.5l-.5 1.3-.5 1.3-.5 1.7q-.3 2.1-.7 3.3l-.3 1.5v.8m12.1 7.4-.7-.1-.6-.4q-.7-.6-1.1-1.2t-.4-1.3v-.7l-.2-.2.1-.2q.2 0 .1-.4l.1-1 .6-1.8.5-.9.7-1.1.8-1 1.3-1.2 1.3-.7 1.5-.3q.7-.1 1.2.3.8.3 1.2.8t.5 1.3 0 2.4q0 1.4-1.1 3.4-.7 1.2-1.4 2t-1.5 1.3l-1.4.7zm2.8-4.2q.7-.7.9-1.5l.4-1.8q.2-.2.1-.6v-.9q-.1-.4-.3-.5-.3-.2-.6 0l-.7.5-1.6 2q-.6 1.1-.8 2.7 0 .8.3 1.1t1 .2q.5-.3 1.3-1.2m8.4 2.2q-.5 0-1-.6t-1-1.7l-.4-2q-.1-1 0-1.6v-1.3l.1-.3v-.5l.1-1 .2-.9.2-.5q.3-.5.8-.7h.9a1 1 0 0 1 .5.7q.2.1.3.7v1.1q0 .6-.2.9v3.4q-.1.6 0 .8.3 0 .7-.4l1-1.7.8-1.6.4-1 .3-1.1q0-.5.2-.9l.2-.5q.3-.5.9-.5t1 .2q.4.4.6 1t-.2 1.5l-.3 1.2-.3 1.5v1.2q.1.6.3.8h.4q.4 0 .7-.3l1-1.1.6-1 .6-1.3.6-1.1.2-.7.2-.6.3-.4q0-.2.4-.4h.5q.4 0 .6.2.2.1.3.6l.2.9-.2 1-.3 1.2-.2.8-.4.5-.5.8-1 1.3-.6.6q-.6.8-1.4 1.3t-1.6.6-1.2-.2q-1-.4-1.2-1.6l-.1-.4-.1-.2h-.4l-.3.6q-.2.5-.9 1.2l-1.3 1q-.6.5-1 .5m17.6-.3q-1.8.2-2.8-.8t-1.3-3q-.1-1.1.2-2.5l.8-2.8q.6-1.4 1.4-2.5.7-1 1.5-1.5l.7-.3.7-.2h1.8q.7.2 1.3.8t.8 1.8v.7q0 .4-.2.7-.3 1.1-1 2.2-.7 1-1.6 1.5l-.5.2-.5.1h-1.2l-1-.4-.3-.2-.1.3-.2 1v1.4l.3.7.4.2h.9l.3-.1q.6-.2.9-.5l.7-.7h.1v-.1l.7-.5.3-.1.2-.2q.5-.1 1 .2.4.2.4.6l-.2.7-.6.9-.7.7h-.2l-.1.2q-.3.4-.5.4h-.3q-.1.3-.8.6zm.8-7.9.5-.1.5-.3q.7-.6.8-1.5t-.3-1.3l-.2-.1h-.2q-.4 0-.8.3l-.7.7-.7 1-.3.8.2-.1.4.1.2.4q.2.2.6.1m9 5.5h-1l-.4-.2-.4-.4q-.3-.3-.3-.9-.1-.5.3-1.4l.3-1 .3-1.4.3-1.3.3-.8q0-.6-.2-.8-.1-.2-.6-.2l-.5-.2q-.2-.2-.2-.8l.1-.8.4-.6.8-.3 1-.1.7.1.4.5.4.9.2.6.6-.7.7-1 1.1-.9 1-.5q.4 0 1 .3l.6.5q.4.5.6 1.1t-.1 1l-.8 1q-.5.4-1.4.3-.2 0-.5-.4l-.3-.6-.2.3-.6.7-.6.7-1 2-1 2.9-.5 1.6q-.2.7-.5.8m15.6 0q-.6-.1-.7-.5t.3-1.4l1.1-3.1q.7-1.6.8-2.4l.2-1.2v-.9l.4-.4.7-.6q.5-.5.7-1l.5-1.5.8-1.9 1.3-3 2.7-5.4.7-.8.6-.3a3 3 0 0 1 1.5.3q.8.2 1.3.7t.9 1l.2 1v2l.2 5.7v3.7q0 2 .2 3.8 0 1.8.3 3.1v1q0 .2-.7.3l-1.3-.1q-.6-.1-.7-.4l-.2-.2v-.6l-.2-2-.3-5-.4.2-2.7.5-1.5.4-1 .3q-.3 0-.7.5l-.6 1q0 .5-.4 1-.3.6-.2.7l-.4.4v.3l-.3 1-.5 1.7q-.3 1-.7 1.6l-.7 1.3zm6.4-11.7h.3l.9-.3.8-.2 2-.6h.5l.3.2h.1v-.7l.1-1.5v-1.9l.1-1.8v-1.4l-.2-1v-.5q-.3 0-.7.7l-1 2-1.1 2.5-.5 1-.4.5-.3.5-.5 1-.4 1zm10.4 16.7-.7-.4-1-.7-.4-.6v-1l.3-2 .3-2.5.5-2.1.3-1.1.5-2.3.5-2 .6-2.2 1-3.7.3-1q0-.2.3-.4l.6-.3.4-.2q.5-.2 1 .4.2.2.2.8l-.2 1-.2.7 1.1-.4h2.5q.8-.1 1.1.1l.6.6.5.4.3.5v1.3l-.4 1.6-.8 1.4q-.4.7-.9 1l-.5.4-.3.2-.6.6-1.3.9-1.4.5-.7.2h-1.2l-.3 1.1q-.4 1-.6 2.8l-.7 3.1-.4 2zm2.8-13.1h.6q.6 0 1.3-.5.7-.3 1.2-.8t.6-1l.9-1.2q.3-.5-.1-.6-.4-.4-1-.3-.7 0-2 1l-.7.4-.3.4-.3 1-.2 1.1zm9.3 11.5h-.3q-.3 0-.4-.2l-.5-.6q-.3-.5-.2-1.2l.1-2v-1q.2-.2.2-.7v-.8q0-.4.4-.7v-1.2l.3-1.6.6-2.7.6-2.9.6-2.4.5-1.7q.2-.9.1-1.1v-.2l.3-.4q.3-.3.8-.3t1 .2l.4.7v1q.2.5 0 1l-.4.6v.2q1.2-.9 2.4-1.2t2 .2 1.3 1.1.6 1.7l-.2 1-.9 2.1-.2.3-.2.4q-.2.4-.8.9l-1 .7q-.7.3-1 .2v.3l-.5.3-2 .8q-.8 0-1-.2l-.2.2v.3l-.1.6q0 .4-.3.8 0 .3-.3.4v1.3l-.2 1.6v.7q0 .4-.2.4l-.1.4v.6a2 2 0 0 1-.4 1.4q-.3.7-.8.7m3-11.6.8-.3 1.3-.7 1.1-.8q.8-.9 1.1-1.6t-.2-1.6q-.3-.4-.9-.2-.5 0-1.1.6l-1.3 1.3-.6 1-.4 1.1-.1 1q0 .2.2.2m12.6 2.6a4 4 0 0 1-2-.2l-1.4-1q-.6-.7-.6-1.3v-.4l.4-.2.4.1.4.2 1.2.4q.7 0 1-.2.5-.3.5-.6l-.1-.6-.4-.7q-1-1.1-1.3-2.2l-.5-2q0-.5.3-1.1l1-1.2q.5-.7 1.3-1.3l1.5-1 1.3-.6h2.2l.9 1.1q.5.8.5 1.3 0 .3-.2.7l-.4.8-.2.5-.1.6q-.1.4-.7.4-.4 0-1-.4a1 1 0 0 1-.5-1l.2-.8.3-.5-.1-.1h-.2l-.7.3-1 .5q-.5.4-.9 1l-.5.7v.9l.2 1 .8 1.3.4.6q1.5 2.3.7 3.5-.6 1.3-2.7 1.5M368.2 43.1c20 9.5 33 25.6 41.3 47l1-.6q-.9-3.7-2.2-7.2-10.6-25.5-33-39.1l-2.3-1.5q1.7-.2 2.7-.6 1.2-.6 1.7-2c.1-.4-1-1.7-1.6-1.8q-4.8-.1-9.8.2c-.6 0-1.5 1.3-1.5 2.1q0 4.5.6 9c0 .9 1.3 1.6 2 2.3.6-.8 1.5-1.6 1.6-2.5q0-2.1-.5-5.3zm735.1 70.5a82 82 0 0 1-54.3 31l.3 1.1q3.8-.1 7.6-.7 27-5.3 44.9-24.4l1.9-2q-.2 1.7 0 2.7c.3.8.8 1.8 1.6 2.1.4.2 2-.6 2-1.1q1.3-4.9 2-9.7c0-.6-1-1.8-1.9-2q-4.4-.8-8.9-1.2c-.8 0-1.8 1-2.7 1.6.7.7 1.3 1.8 2.2 2q2.1.5 5.3.6zM775.1 361.2a82 82 0 0 1 35.8-51.2l-.8-.9q-3.4 1.8-6.5 3.9a82 82 0 0 0-30.1 41.3l-.9 2.7q-.6-1.7-1.2-2.6-1-1-2.3-1.2c-.5 0-1.5 1.4-1.4 2q.9 4.8 2.4 9.5c.2.6 1.7 1.2 2.5 1q4.4-1 8.6-2.7c.8-.3 1.2-1.7 1.7-2.6-.9-.3-1.9-1-2.7-.9-1.6.3-3 1-5.1 1.7zm-449.7-9.1a82 82 0 0 1 35.8-51.3l-.8-.8q-3.4 1.8-6.5 3.8a82 82 0 0 0-30.1 41.4l-.8 2.6c-.6-1-.7-2-1.3-2.5q-1-1-2.3-1.2c-.4 0-1.5 1.4-1.4 2q.9 4.8 2.5 9.5c.2.6 1.7 1.1 2.4 1q4.5-1.1 8.6-2.8c.8-.3 1.2-1.7 1.8-2.6-1-.3-2-1-2.8-.8-1.6.2-3 1-5.1 1.7zM478 503.2a82 82 0 0 1 35.8-51.2l-.8-.9q-3.4 1.8-6.5 3.9a82 82 0 0 0-30.1 41.3l-.9 2.7q-.6-1.7-1.2-2.6-1-1-2.3-1.2c-.5 0-1.5 1.4-1.4 2q.9 4.8 2.4 9.5c.2.6 1.7 1.2 2.5 1q4.4-1 8.6-2.7c.8-.3 1.2-1.7 1.7-2.6-.9-.3-1.9-1-2.7-.9-1.6.3-3 1-5.1 1.7zM912.7 670c5.7-21.3 2-41.7-8.8-61.9l1-.4q2.3 3.1 4.1 6.4a81 81 0 0 1 8.3 50.5l-.5 2.7q1.3-1.1 2.2-1.7 1.4-.5 2.6 0c.4.2.7 2 .4 2.4q-3 3.9-6.5 7.3c-.4.5-2 .3-2.6-.2q-3.5-3-6.5-6.3c-.5-.6-.3-2-.4-3.1 1 .1 2.2 0 3 .5q1.6 1.4 3.7 3.8zm202-237.4a82 82 0 0 1-59.5 19.3l.1 1.1q3.8.7 7.5 1 27.6.2 49-15l2.2-1.5q-.5 1.7-.5 2.7c.1.8.5 1.9 1.1 2.4.4.2 2-.2 2.3-.7q2.3-4.5 3.8-9.1c.2-.6-.6-2-1.4-2.3a60 60 0 0 0-8.5-3c-.8-.2-2 .6-3 1 .6.8 1 2 1.8 2.4q2 .9 5 1.7zM776 98.7c2 22-5.3 41.4-19.5 59.4l1 .6q2.7-2.7 5.1-5.6a82 82 0 0 0 17-48.2V102q1 1.5 1.8 2 1.3.9 2.6.5c.4-.1 1-1.8.8-2.3a81 81 0 0 0-5.1-8.4c-.4-.5-2-.6-2.6-.2a61 61 0 0 0-7.5 5c-.7.6-.6 2-1 3 1 .1 2.2.5 3 .1q1.9-1.1 4.4-3.1zm170-4.4a82 82 0 0 0-44.4 44l-1-.5q1.2-3.8 2.7-7.1A81 81 0 0 1 939 93.9l2.4-1.2q-1.7-.3-2.6-.8-1.2-.9-1.7-2c0-.5 1.2-1.8 1.8-1.8q4.9 0 9.7.8c.6 0 1.5 1.4 1.4 2.2q-.2 4.5-1.2 9c-.2.8-1.4 1.4-2.2 2.1-.5-.8-1.3-1.7-1.4-2.6q.1-2.1.9-5.3zm-779.4 1.9a78 78 0 0 0 43 41.1l-.6 1q-3.4-1-6.8-2.4a78 78 0 0 1-35.8-33l-1.2-2.3q-.3 1.7-.7 2.6-.7 1.2-2 1.6c-.4 0-1.6-1-1.6-1.6q0-4.8.5-9.4c0-.5 1.4-1.4 2.1-1.3q4.3.1 8.5.9c.8.2 1.5 1.4 2.2 2.1-.9.5-1.6 1.3-2.5 1.3q-2.1 0-5-.6zm-3.1 187.1c13.6 16 31.6 24.1 53.3 26.5l-.3 1q-3.7.2-7.2-.2a78 78 0 0 1-44-20.8l-1.9-1.8q.2 1.7.1 2.6c-.2.8-.6 1.8-1.3 2.1-.4.2-2-.5-2.1-1q-1.4-4.5-2.3-9c-.1-.6.9-1.8 1.6-2q4.1-1.1 8.4-1.6c.8-.1 1.8.8 2.7 1.3-.7.7-1.2 1.7-2 2q-2 .6-5 1zM492.4 89.6c-.4 21 7.7 39 22.3 55.1l-.8.6q-2.8-2.3-5.3-5a78 78 0 0 1-19.2-44.6q0-.9-.2-2.7-.9 1.5-1.6 2.1-1.2.7-2.4.7c-.5-.2-1.1-1.7-1-2.2q2-4.2 4.4-8.3c.3-.5 1.8-.7 2.5-.4q3.8 1.9 7.4 4.4c.6.4.7 1.8 1 2.8-.9 0-2 .5-2.7.2q-1.9-1-4.4-2.7zm148 141.6a78 78 0 0 1-28.8 52l.8.8q3-2 5.8-4.3 19.4-17.7 24.4-42.1l.5-2.6q.7 1.5 1.4 2.3 1 .9 2.3.9c.4 0 1.3-1.5 1.1-2q-1.4-4.5-3.2-8.8c-.3-.5-1.7-1-2.4-.7q-4 1.4-8 3.5c-.6.3-.9 1.7-1.3 2.6.9.2 1.9.8 2.7.5q2-.7 4.6-2.1zM773.9 509c.6-21-7.5-39-22-55.3l.9-.6q2.8 2.4 5.2 5a78 78 0 0 1 19 44.8v2.6q1-1.4 1.8-2 1-.9 2.4-.7c.4.1 1 1.7.9 2.2a77 77 0 0 1-4.4 8.2c-.3.5-1.8.8-2.5.4q-3.8-1.9-7.3-4.4c-.7-.4-.8-1.8-1.1-2.8 1 0 2-.5 2.8-.1q1.9.8 4.3 2.6zm332.6 120a78 78 0 0 0-48-35l.4-1q3.6.4 7 1.3a78 78 0 0 1 40 27.9l1.5 2.1q0-1.7.3-2.6c.4-.7 1-1.6 1.7-1.8.4-.2 1.8.8 1.9 1.3q.7 4.7.7 9.3c0 .6-1.1 1.6-1.9 1.7q-4.2.3-8.5.2c-.9 0-1.6-1.2-2.4-1.8.7-.6 1.4-1.5 2.2-1.6q2.1-.3 5.1 0zM164.3 470.8c21-1.9 38-12 52.3-28.2l.8.8q-2.1 3-4.4 5.7a78 78 0 0 1-42.3 24l-2.6.5q1.6.8 2.2 1.4.9 1 1 2.3c-.1.5-1.6 1.3-2 1.2q-4.6-1.5-8.8-3.4c-.5-.2-1-1.7-.7-2.4q1.5-4.1 3.5-7.9c.4-.7 1.8-.9 2.7-1.3.2.9.7 1.9.5 2.7q-.7 2-2.2 4.6zm950.3-192.6a78 78 0 0 0-57.9 13.8l-.5-1q2.8-2.4 5.7-4.5a78 78 0 0 1 47.1-12.1q1 0 2.6.2-1.1-1.1-1.7-2-.7-1.2-.3-2.5c.2-.4 1.8-.8 2.2-.5q4 2.5 7.6 5.5c.4.4.4 1.9 0 2.5a56 56 0 0 1-5.4 6.7c-.6.5-2 .4-3 .6.1-1-.2-2 .3-2.8q1.1-1.6 3.3-3.9zM492.5 692q.8-.3 1-1c6-14.7 219.5-5 226.5-4.1 7.4.9 14.4 2.3 21.9 2.5 11.2.3 36.9-1.7 26.8-18.7-1-1.6-3.4-.2-2.6 1.5 9.2 18-33.1 13.5-38.8 12.6-6.6-1-225.2-12.5-234.8 1.4-9.6-14-228.2-2.5-234.8-1.4-5.7 1-48 5.4-38.8-12.6.8-1.7-1.6-3.1-2.6-1.5-10 17 15.6 19 26.8 18.7 7.5-.2 14.5-1.6 21.9-2.5 7-.9 221.5-11 226.5 4.1q.4.7 1 1"/></svg>
